<svg xmlns="http://www.w3.org/2000/svg" version="1.1" xmlns:xlink="http://www.w3.org/1999/xlink" xmlns:svgjs="http://svgjs.com/svgjs" width="1440" height="560" preserveAspectRatio="none" viewBox="0 0 1440 560"><g mask="url(&quot;#SvgjsMask1013&quot;)" fill="none"><rect width="1440" height="560" x="0" y="0" fill="rgba(6, 0, 61, 1)"></rect><path d="M1512 560L0 560 L0 304.23Q51.49 235.72, 120 287.2Q171.72 266.92, 192 318.64Q218.2 272.84, 264 299.04Q317.14 280.18, 336 333.32Q348.84 274.16, 408 287.01Q454.25 261.26, 480 307.51Q546.58 302.09, 552 368.67Q573.76 270.43, 672 292.19Q717.57 265.75, 744 311.32Q787.34 282.65, 816 325.99Q892.21 282.2, 936 358.41Q937.88 288.29, 1008 290.17Q1073.92 236.09, 1128 302.01Q1196.57 298.58, 1200 367.15Q1239.45 286.6, 1320 326.04Q1363.81 297.85, 1392 341.66Q1426.09 255.75, 1512 289.84z" fill="#182f5d"></path><path d="M1464 560L0 560 L0 402.12Q73.83 355.95, 120 429.78Q160.93 350.7, 240 391.63Q280.05 311.68, 360 351.72Q448.78 320.5, 480 409.29Q495.21 352.5, 552 367.72Q582.88 326.6, 624 357.48Q696.46 309.94, 744 382.4Q773.02 339.42, 816 368.44Q866.8 347.25, 888 398.05Q962.16 352.21, 1008 426.37Q1049.53 395.9, 1080 437.44Q1093.52 378.96, 1152 392.47Q1223.75 344.22, 1272 415.97Q1317.34 389.31, 1344 434.65Q1369.95 340.61, 1464 366.56z" fill="rgba(5, 10, 96, 1)"></path><path d="M1464 560L0 560 L0 429.85Q60.24 418.09, 72 478.33Q137.55 423.88, 192 489.42Q233.76 459.19, 264 500.95Q273.41 438.36, 336 447.76Q379.64 419.4, 408 463.05Q457.3 440.35, 480 489.64Q493.26 430.9, 552 444.16Q601.85 374.01, 672 423.86Q754.68 386.54, 792 469.22Q864.6 421.82, 912 494.42Q955.93 466.35, 984 510.28Q1000.41 454.69, 1056 471.1Q1097.53 440.63, 1128 482.15Q1148.42 430.57, 1200 451Q1222.89 401.89, 1272 424.78Q1327.71 408.49, 1344 464.2Q1421.76 421.96, 1464 499.72z" fill="rgba(20, 12, 134, 1)"></path><path d="M1536 560L0 560 L0 583.88Q27.61 539.49, 72 567.09Q102.96 478.05, 192 509Q271.62 468.62, 312 548.24Q335.43 499.67, 384 523.1Q474.44 493.54, 504 583.98Q554.97 514.95, 624 565.92Q641.17 511.09, 696 528.25Q723.67 483.92, 768 511.6Q826.27 497.88, 840 556.15Q866.77 510.92, 912 537.7Q988.09 493.79, 1032 569.87Q1065.02 482.89, 1152 515.91Q1199.07 490.98, 1224 538.06Q1267.47 461.53, 1344 505.01Q1387.58 476.59, 1416 520.16Q1485.18 469.35, 1536 538.53z" fill="rgba(40, 10, 172, 1)"></path></g><defs><mask id="SvgjsMask1013"><rect width="1440" height="560" fill="#ffffff"></rect></mask></defs></svg>