<svg xmlns="http://www.w3.org/2000/svg" version="1.1" xmlns:xlink="http://www.w3.org/1999/xlink" xmlns:svgjs="http://svgjs.com/svgjs" width="1440" height="560" preserveAspectRatio="none" viewBox="0 0 1440 560"><g mask="url(&quot;#SvgjsMask1014&quot;)" fill="none"><rect width="1440" height="560" x="0" y="0" fill="rgba(6, 0, 61, 1)"></rect><path d="M1512 560L0 560 L0 377.04Q27.4 332.44, 72 359.84Q108.71 276.55, 192 313.26Q260.65 261.91, 312 330.56Q371.06 317.63, 384 376.69Q436.49 309.18, 504 361.66Q547.1 284.75, 624 327.85Q649.63 281.48, 696 307.1Q775.48 266.58, 816 346.05Q847.87 257.92, 936 289.79Q986.5 268.3, 1008 318.8Q1081.21 272.01, 1128 345.23Q1137.63 282.86, 1200 292.49Q1267.47 239.96, 1320 307.42Q1364.44 279.86, 1392 324.3Q1477.75 290.05, 1512 375.8z" fill="#182f5d"></path><path d="M1512 560L0 560 L0 446.13Q24.08 398.21, 72 422.29Q119.23 349.52, 192 396.76Q219.26 352.02, 264 379.28Q318.42 361.7, 336 416.12Q370.63 330.75, 456 365.38Q505.69 343.06, 528 392.75Q581.66 374.41, 600 428.08Q645.29 401.37, 672 446.66Q685.12 339.78, 792 352.9Q864.3 305.2, 912 377.5Q979.41 372.91, 984 440.33Q1025.33 361.65, 1104 402.98Q1153.22 332.2, 1224 381.41Q1254.02 339.43, 1296 369.45Q1324.43 325.88, 1368 354.32Q1418.37 332.69, 1440 383.05Q1489.08 360.13, 1512 409.21z" fill="rgba(5, 10, 96, 1)"></path><path d="M1464 560L0 560 L0 505.28Q-1.99 431.29, 72 429.31Q144.31 429.62, 144 501.93Q185.12 471.05, 216 512.18Q225.95 450.13, 288 460.08Q362.63 414.71, 408 489.34Q452.28 461.62, 480 505.89Q483.56 437.45, 552 441.02Q617.23 386.25, 672 451.48Q739.47 398.95, 792 466.41Q813.11 415.52, 864 436.63Q905.06 405.69, 936 446.74Q1008.66 399.4, 1056 472.06Q1109.88 453.94, 1128 507.82Q1154.41 462.24, 1200 488.65Q1217.48 434.13, 1272 451.61Q1357.06 416.67, 1392 501.73Q1435.66 473.39, 1464 517.06z" fill="rgba(20, 12, 134, 1)"></path><path d="M1464 560L0 560 L0 511.88Q75.48 467.36, 120 542.84Q156.26 459.1, 240 495.36Q294.04 477.4, 312 531.45Q395.89 495.35, 432 579.24Q450.08 477.32, 552 495.39Q623.49 446.88, 672 518.36Q758.98 485.34, 792 572.32Q821.03 529.36, 864 558.39Q890.87 513.25, 936 540.12Q992.86 524.98, 1008 581.84Q1034.51 536.36, 1080 562.87Q1123.8 486.66, 1200 530.46Q1260.64 519.11, 1272 579.75Q1292.71 528.46, 1344 549.17Q1409.66 494.83, 1464 560.48z" fill="rgba(40, 10, 172, 1)"></path></g><defs><mask id="SvgjsMask1014"><rect width="1440" height="560" fill="#ffffff"></rect></mask></defs></svg>