<svg xmlns="http://www.w3.org/2000/svg" version="1.1" xmlns:xlink="http://www.w3.org/1999/xlink" xmlns:svgjs="http://svgjs.com/svgjs" width="1440" height="560" preserveAspectRatio="none" viewBox="0 0 1440 560"><g mask="url(&quot;#SvgjsMask1196&quot;)" fill="none"><rect width="1440" height="560" x="0" y="0" fill="rgba(6, 0, 61, 1)"></rect><path d="M-63.48 389.68L-63.48 389.68" stroke="rgba(30, 44, 103, 1)" stroke-width="1.5"></path><path d="M-63.48 389.68L-41.19 522.82" stroke="rgba(30, 44, 103, 1)" stroke-width="1.5"></path><path d="M-63.48 389.68L85.93 399.83" stroke="rgba(30, 44, 103, 1)" stroke-width="1.5"></path><path d="M-63.48 389.68L228.25 367.98" stroke="rgba(30, 44, 103, 1)" stroke-width="1.5"></path><path d="M-63.48 389.68L212.01 489.52" stroke="rgba(30, 44, 103, 1)" stroke-width="1.5"></path><path d="M-63.48 389.68L48.61 660.52" stroke="rgba(30, 44, 103, 1)" stroke-width="1.5"></path><path d="M-63.48 389.68L195.57 649.33" stroke="rgba(30, 44, 103, 1)" stroke-width="1.5"></path><path d="M-41.19 522.82L-41.19 522.82" stroke="rgba(30, 44, 103, 1)" stroke-width="1.5"></path><path d="M-41.19 522.82L48.61 660.52" stroke="rgba(30, 44, 103, 1)" stroke-width="1.5"></path><path d="M-41.19 522.82L85.93 399.83" stroke="rgba(30, 44, 103, 1)" stroke-width="1.5"></path><path d="M-41.19 522.82L212.01 489.52" stroke="rgba(30, 44, 103, 1)" stroke-width="1.5"></path><path d="M85.93 399.83L85.93 399.83" stroke="rgba(30, 44, 103, 1)" stroke-width="1.5"></path><path d="M85.93 399.83L228.25 367.98" stroke="rgba(30, 44, 103, 1)" stroke-width="1.5"></path><path d="M85.93 399.83L212.01 489.52" stroke="rgba(30, 44, 103, 1)" stroke-width="1.5"></path><path d="M85.93 399.83L48.61 660.52" stroke="rgba(30, 44, 103, 1)" stroke-width="1.5"></path><path d="M85.93 399.83L195.57 649.33" stroke="rgba(30, 44, 103, 1)" stroke-width="1.5"></path><path d="M48.61 660.52L48.61 660.52" stroke="rgba(30, 44, 103, 1)" stroke-width="1.5"></path><path d="M48.61 660.52L195.57 649.33" stroke="rgba(30, 44, 103, 1)" stroke-width="1.5"></path><path d="M48.61 660.52L212.01 489.52" stroke="rgba(30, 44, 103, 1)" stroke-width="1.5"></path><path d="M228.25 367.98L228.25 367.98" stroke="rgba(30, 44, 103, 1)" stroke-width="1.5"></path><path d="M228.25 367.98L212.01 489.52" stroke="rgba(30, 44, 103, 1)" stroke-width="1.5"></path><path d="M228.25 367.98L398.72 400.34" stroke="rgba(30, 44, 103, 1)" stroke-width="1.5"></path><path d="M228.25 367.98L349 545.94" stroke="rgba(30, 44, 103, 1)" stroke-width="1.5"></path><path d="M228.25 367.98L195.57 649.33" stroke="rgba(30, 44, 103, 1)" stroke-width="1.5"></path><path d="M212.01 489.52L212.01 489.52" stroke="rgba(30, 44, 103, 1)" stroke-width="1.5"></path><path d="M212.01 489.52L349 545.94" stroke="rgba(30, 44, 103, 1)" stroke-width="1.5"></path><path d="M195.57 649.33L195.57 649.33" stroke="rgba(30, 44, 103, 1)" stroke-width="1.5"></path><path d="M195.57 649.33L212.01 489.52" stroke="rgba(30, 44, 103, 1)" stroke-width="1.5"></path><path d="M195.57 649.33L349 545.94" stroke="rgba(30, 44, 103, 1)" stroke-width="1.5"></path><path d="M195.57 649.33L407.6 662.56" stroke="rgba(30, 44, 103, 1)" stroke-width="1.5"></path><path d="M195.57 649.33L-41.19 522.82" stroke="rgba(30, 44, 103, 1)" stroke-width="1.5"></path><path d="M398.72 400.34L398.72 400.34" stroke="rgba(30, 44, 103, 1)" stroke-width="1.5"></path><path d="M398.72 400.34L520.06 407.77" stroke="rgba(30, 44, 103, 1)" stroke-width="1.5"></path><path d="M398.72 400.34L349 545.94" stroke="rgba(30, 44, 103, 1)" stroke-width="1.5"></path><path d="M349 545.94L349 545.94" stroke="rgba(30, 44, 103, 1)" stroke-width="1.5"></path><path d="M349 545.94L407.6 662.56" stroke="rgba(30, 44, 103, 1)" stroke-width="1.5"></path><path d="M349 545.94L492.85 526.69" stroke="rgba(30, 44, 103, 1)" stroke-width="1.5"></path><path d="M407.6 662.56L407.6 662.56" stroke="rgba(30, 44, 103, 1)" stroke-width="1.5"></path><path d="M407.6 662.56L551.14 696.55" stroke="rgba(30, 44, 103, 1)" stroke-width="1.5"></path><path d="M407.6 662.56L492.85 526.69" stroke="rgba(30, 44, 103, 1)" stroke-width="1.5"></path><path d="M407.6 662.56L212.01 489.52" stroke="rgba(30, 44, 103, 1)" stroke-width="1.5"></path><path d="M407.6 662.56L398.72 400.34" stroke="rgba(30, 44, 103, 1)" stroke-width="1.5"></path><path d="M520.06 407.77L520.06 407.77" stroke="rgba(30, 44, 103, 1)" stroke-width="1.5"></path><path d="M520.06 407.77L492.85 526.69" stroke="rgba(30, 44, 103, 1)" stroke-width="1.5"></path><path d="M520.06 407.77L645.51 503.53" stroke="rgba(30, 44, 103, 1)" stroke-width="1.5"></path><path d="M520.06 407.77L676.96 373.91" stroke="rgba(30, 44, 103, 1)" stroke-width="1.5"></path><path d="M520.06 407.77L349 545.94" stroke="rgba(30, 44, 103, 1)" stroke-width="1.5"></path><path d="M520.06 407.77L407.6 662.56" stroke="rgba(30, 44, 103, 1)" stroke-width="1.5"></path><path d="M492.85 526.69L492.85 526.69" stroke="rgba(30, 44, 103, 1)" stroke-width="1.5"></path><path d="M492.85 526.69L645.51 503.53" stroke="rgba(30, 44, 103, 1)" stroke-width="1.5"></path><path d="M551.14 696.55L551.14 696.55" stroke="rgba(30, 44, 103, 1)" stroke-width="1.5"></path><path d="M551.14 696.55L669.67 686.82" stroke="rgba(30, 44, 103, 1)" stroke-width="1.5"></path><path d="M551.14 696.55L492.85 526.69" stroke="rgba(30, 44, 103, 1)" stroke-width="1.5"></path><path d="M551.14 696.55L645.51 503.53" stroke="rgba(30, 44, 103, 1)" stroke-width="1.5"></path><path d="M676.96 373.91L676.96 373.91" stroke="rgba(30, 44, 103, 1)" stroke-width="1.5"></path><path d="M676.96 373.91L645.51 503.53" stroke="rgba(30, 44, 103, 1)" stroke-width="1.5"></path><path d="M676.96 373.91L810.88 392.62" stroke="rgba(30, 44, 103, 1)" stroke-width="1.5"></path><path d="M676.96 373.91L808.38 233.19" stroke="rgba(30, 44, 103, 1)" stroke-width="1.5"></path><path d="M645.51 503.53L645.51 503.53" stroke="rgba(30, 44, 103, 1)" stroke-width="1.5"></path><path d="M645.51 503.53L669.67 686.82" stroke="rgba(30, 44, 103, 1)" stroke-width="1.5"></path><path d="M645.51 503.53L810.88 392.62" stroke="rgba(30, 44, 103, 1)" stroke-width="1.5"></path><path d="M645.51 503.53L794.91 651.43" stroke="rgba(30, 44, 103, 1)" stroke-width="1.5"></path><path d="M669.67 686.82L669.67 686.82" stroke="rgba(30, 44, 103, 1)" stroke-width="1.5"></path><path d="M669.67 686.82L794.91 651.43" stroke="rgba(30, 44, 103, 1)" stroke-width="1.5"></path><path d="M669.67 686.82L492.85 526.69" stroke="rgba(30, 44, 103, 1)" stroke-width="1.5"></path><path d="M669.67 686.82L407.6 662.56" stroke="rgba(30, 44, 103, 1)" stroke-width="1.5"></path><path d="M808.38 233.19L808.38 233.19" stroke="rgba(30, 44, 103, 1)" stroke-width="1.5"></path><path d="M808.38 233.19L810.88 392.62" stroke="rgba(30, 44, 103, 1)" stroke-width="1.5"></path><path d="M810.88 392.62L810.88 392.62" stroke="rgba(30, 44, 103, 1)" stroke-width="1.5"></path><path d="M810.88 392.62L1010 337.61" stroke="rgba(30, 44, 103, 1)" stroke-width="1.5"></path><path d="M794.91 651.43L794.91 651.43" stroke="rgba(30, 44, 103, 1)" stroke-width="1.5"></path><path d="M794.91 651.43L1005.1 711.37" stroke="rgba(30, 44, 103, 1)" stroke-width="1.5"></path><path d="M794.91 651.43L992.96 552.8" stroke="rgba(30, 44, 103, 1)" stroke-width="1.5"></path><path d="M794.91 651.43L551.14 696.55" stroke="rgba(30, 44, 103, 1)" stroke-width="1.5"></path><path d="M939.2 -101.78L939.2 -101.78" stroke="rgba(30, 44, 103, 1)" stroke-width="1.5"></path><path d="M939.2 -101.78L1088.97 37.86" stroke="rgba(30, 44, 103, 1)" stroke-width="1.5"></path><path d="M939.2 -101.78L1155.53 -46.52" stroke="rgba(30, 44, 103, 1)" stroke-width="1.5"></path><path d="M939.2 -101.78L808.38 233.19" stroke="rgba(30, 44, 103, 1)" stroke-width="1.5"></path><path d="M939.2 -101.78L1142.44 239.92" stroke="rgba(30, 44, 103, 1)" stroke-width="1.5"></path><path d="M939.2 -101.78L1248.34 213.71" stroke="rgba(30, 44, 103, 1)" stroke-width="1.5"></path><path d="M939.2 -101.78L1010 337.61" stroke="rgba(30, 44, 103, 1)" stroke-width="1.5"></path><path d="M1010 337.61L1010 337.61" stroke="rgba(30, 44, 103, 1)" stroke-width="1.5"></path><path d="M1010 337.61L1142.01 372.88" stroke="rgba(30, 44, 103, 1)" stroke-width="1.5"></path><path d="M1010 337.61L1142.44 239.92" stroke="rgba(30, 44, 103, 1)" stroke-width="1.5"></path><path d="M1010 337.61L992.96 552.8" stroke="rgba(30, 44, 103, 1)" stroke-width="1.5"></path><path d="M1010 337.61L808.38 233.19" stroke="rgba(30, 44, 103, 1)" stroke-width="1.5"></path><path d="M992.96 552.8L992.96 552.8" stroke="rgba(30, 44, 103, 1)" stroke-width="1.5"></path><path d="M992.96 552.8L1107.68 554.12" stroke="rgba(30, 44, 103, 1)" stroke-width="1.5"></path><path d="M992.96 552.8L1005.1 711.37" stroke="rgba(30, 44, 103, 1)" stroke-width="1.5"></path><path d="M992.96 552.8L1095.83 682.56" stroke="rgba(30, 44, 103, 1)" stroke-width="1.5"></path><path d="M992.96 552.8L1142.01 372.88" stroke="rgba(30, 44, 103, 1)" stroke-width="1.5"></path><path d="M1005.1 711.37L1005.1 711.37" stroke="rgba(30, 44, 103, 1)" stroke-width="1.5"></path><path d="M1005.1 711.37L1095.83 682.56" stroke="rgba(30, 44, 103, 1)" stroke-width="1.5"></path><path d="M1155.53 -46.52L1155.53 -46.52" stroke="rgba(30, 44, 103, 1)" stroke-width="1.5"></path><path d="M1155.53 -46.52L1088.97 37.86" stroke="rgba(30, 44, 103, 1)" stroke-width="1.5"></path><path d="M1155.53 -46.52L1248.34 213.71" stroke="rgba(30, 44, 103, 1)" stroke-width="1.5"></path><path d="M1155.53 -46.52L1142.44 239.92" stroke="rgba(30, 44, 103, 1)" stroke-width="1.5"></path><path d="M1155.53 -46.52L1425.82 102.52" stroke="rgba(30, 44, 103, 1)" stroke-width="1.5"></path><path d="M1088.97 37.86L1088.97 37.86" stroke="rgba(30, 44, 103, 1)" stroke-width="1.5"></path><path d="M1142.44 239.92L1142.44 239.92" stroke="rgba(30, 44, 103, 1)" stroke-width="1.5"></path><path d="M1142.44 239.92L1248.34 213.71" stroke="rgba(30, 44, 103, 1)" stroke-width="1.5"></path><path d="M1142.44 239.92L1142.01 372.88" stroke="rgba(30, 44, 103, 1)" stroke-width="1.5"></path><path d="M1142.44 239.92L1276.05 398.31" stroke="rgba(30, 44, 103, 1)" stroke-width="1.5"></path><path d="M1142.44 239.92L1088.97 37.86" stroke="rgba(30, 44, 103, 1)" stroke-width="1.5"></path><path d="M1142.44 239.92L1425.95 257.86" stroke="rgba(30, 44, 103, 1)" stroke-width="1.5"></path><path d="M1142.01 372.88L1142.01 372.88" stroke="rgba(30, 44, 103, 1)" stroke-width="1.5"></path><path d="M1142.01 372.88L1276.05 398.31" stroke="rgba(30, 44, 103, 1)" stroke-width="1.5"></path><path d="M1142.01 372.88L1107.68 554.12" stroke="rgba(30, 44, 103, 1)" stroke-width="1.5"></path><path d="M1142.01 372.88L1248.34 213.71" stroke="rgba(30, 44, 103, 1)" stroke-width="1.5"></path><path d="M1107.68 554.12L1107.68 554.12" stroke="rgba(30, 44, 103, 1)" stroke-width="1.5"></path><path d="M1107.68 554.12L1095.83 682.56" stroke="rgba(30, 44, 103, 1)" stroke-width="1.5"></path><path d="M1107.68 554.12L1283.48 561.83" stroke="rgba(30, 44, 103, 1)" stroke-width="1.5"></path><path d="M1095.83 682.56L1095.83 682.56" stroke="rgba(30, 44, 103, 1)" stroke-width="1.5"></path><path d="M1095.83 682.56L1293.78 651.58" stroke="rgba(30, 44, 103, 1)" stroke-width="1.5"></path><path d="M1248.34 213.71L1248.34 213.71" stroke="rgba(30, 44, 103, 1)" stroke-width="1.5"></path><path d="M1248.34 213.71L1425.95 257.86" stroke="rgba(30, 44, 103, 1)" stroke-width="1.5"></path><path d="M1248.34 213.71L1276.05 398.31" stroke="rgba(30, 44, 103, 1)" stroke-width="1.5"></path><path d="M1276.05 398.31L1276.05 398.31" stroke="rgba(30, 44, 103, 1)" stroke-width="1.5"></path><path d="M1276.05 398.31L1409.16 343.01" stroke="rgba(30, 44, 103, 1)" stroke-width="1.5"></path><path d="M1276.05 398.31L1283.48 561.83" stroke="rgba(30, 44, 103, 1)" stroke-width="1.5"></path><path d="M1276.05 398.31L1419.31 519.56" stroke="rgba(30, 44, 103, 1)" stroke-width="1.5"></path><path d="M1283.48 561.83L1283.48 561.83" stroke="rgba(30, 44, 103, 1)" stroke-width="1.5"></path><path d="M1283.48 561.83L1293.78 651.58" stroke="rgba(30, 44, 103, 1)" stroke-width="1.5"></path><path d="M1283.48 561.83L1419.31 519.56" stroke="rgba(30, 44, 103, 1)" stroke-width="1.5"></path><path d="M1283.48 561.83L1398.37 649.77" stroke="rgba(30, 44, 103, 1)" stroke-width="1.5"></path><path d="M1293.78 651.58L1293.78 651.58" stroke="rgba(30, 44, 103, 1)" stroke-width="1.5"></path><path d="M1293.78 651.58L1398.37 649.77" stroke="rgba(30, 44, 103, 1)" stroke-width="1.5"></path><path d="M1293.78 651.58L1419.31 519.56" stroke="rgba(30, 44, 103, 1)" stroke-width="1.5"></path><path d="M1425.82 102.52L1425.82 102.52" stroke="rgba(30, 44, 103, 1)" stroke-width="1.5"></path><path d="M1425.82 102.52L1425.95 257.86" stroke="rgba(30, 44, 103, 1)" stroke-width="1.5"></path><path d="M1425.82 102.52L1545.46 236.39" stroke="rgba(30, 44, 103, 1)" stroke-width="1.5"></path><path d="M1425.82 102.52L1602.05 43.99" stroke="rgba(30, 44, 103, 1)" stroke-width="1.5"></path><path d="M1425.82 102.52L1248.34 213.71" stroke="rgba(30, 44, 103, 1)" stroke-width="1.5"></path><path d="M1425.95 257.86L1425.95 257.86" stroke="rgba(30, 44, 103, 1)" stroke-width="1.5"></path><path d="M1425.95 257.86L1409.16 343.01" stroke="rgba(30, 44, 103, 1)" stroke-width="1.5"></path><path d="M1425.95 257.86L1545.46 236.39" stroke="rgba(30, 44, 103, 1)" stroke-width="1.5"></path><path d="M1409.16 343.01L1409.16 343.01" stroke="rgba(30, 44, 103, 1)" stroke-width="1.5"></path><path d="M1419.31 519.56L1419.31 519.56" stroke="rgba(30, 44, 103, 1)" stroke-width="1.5"></path><path d="M1419.31 519.56L1398.37 649.77" stroke="rgba(30, 44, 103, 1)" stroke-width="1.5"></path><path d="M1419.31 519.56L1561.49 554.94" stroke="rgba(30, 44, 103, 1)" stroke-width="1.5"></path><path d="M1419.31 519.56L1409.16 343.01" stroke="rgba(30, 44, 103, 1)" stroke-width="1.5"></path><path d="M1398.37 649.77L1398.37 649.77" stroke="rgba(30, 44, 103, 1)" stroke-width="1.5"></path><path d="M1398.37 649.77L1561.49 554.94" stroke="rgba(30, 44, 103, 1)" stroke-width="1.5"></path><path d="M1590.63 -83.3L1590.63 -83.3" stroke="rgba(30, 44, 103, 1)" stroke-width="1.5"></path><path d="M1590.63 -83.3L1602.05 43.99" stroke="rgba(30, 44, 103, 1)" stroke-width="1.5"></path><path d="M1590.63 -83.3L1425.82 102.52" stroke="rgba(30, 44, 103, 1)" stroke-width="1.5"></path><path d="M1590.63 -83.3L1545.46 236.39" stroke="rgba(30, 44, 103, 1)" stroke-width="1.5"></path><path d="M1602.05 43.99L1602.05 43.99" stroke="rgba(30, 44, 103, 1)" stroke-width="1.5"></path><path d="M1602.05 43.99L1545.46 236.39" stroke="rgba(30, 44, 103, 1)" stroke-width="1.5"></path><path d="M1602.05 43.99L1425.95 257.86" stroke="rgba(30, 44, 103, 1)" stroke-width="1.5"></path><path d="M1602.05 43.99L1559.37 349.03" stroke="rgba(30, 44, 103, 1)" stroke-width="1.5"></path><path d="M1602.05 43.99L1409.16 343.01" stroke="rgba(30, 44, 103, 1)" stroke-width="1.5"></path><path d="M1545.46 236.39L1545.46 236.39" stroke="rgba(30, 44, 103, 1)" stroke-width="1.5"></path><path d="M1545.46 236.39L1559.37 349.03" stroke="rgba(30, 44, 103, 1)" stroke-width="1.5"></path><path d="M1545.46 236.39L1409.16 343.01" stroke="rgba(30, 44, 103, 1)" stroke-width="1.5"></path><path d="M1559.37 349.03L1559.37 349.03" stroke="rgba(30, 44, 103, 1)" stroke-width="1.5"></path><path d="M1559.37 349.03L1409.16 343.01" stroke="rgba(30, 44, 103, 1)" stroke-width="1.5"></path><path d="M1559.37 349.03L1425.95 257.86" stroke="rgba(30, 44, 103, 1)" stroke-width="1.5"></path><path d="M1559.37 349.03L1561.49 554.94" stroke="rgba(30, 44, 103, 1)" stroke-width="1.5"></path><path d="M1559.37 349.03L1419.31 519.56" stroke="rgba(30, 44, 103, 1)" stroke-width="1.5"></path><path d="M1561.49 554.94L1561.49 554.94" stroke="rgba(30, 44, 103, 1)" stroke-width="1.5"></path><path d="M1561.49 554.94L1607.9 651.31" stroke="rgba(30, 44, 103, 1)" stroke-width="1.5"></path><path d="M1607.9 651.31L1607.9 651.31" stroke="rgba(30, 44, 103, 1)" stroke-width="1.5"></path><path d="M1607.9 651.31L1398.37 649.77" stroke="rgba(30, 44, 103, 1)" stroke-width="1.5"></path><path d="M1607.9 651.31L1419.31 519.56" stroke="rgba(30, 44, 103, 1)" stroke-width="1.5"></path><circle r="5" cx="-63.48" cy="389.68" fill="rgba(30, 44, 103, 1)"></circle><circle r="5" cx="-41.19" cy="522.82" fill="rgba(30, 44, 103, 1)"></circle><circle r="5" cx="85.93" cy="399.83" fill="rgba(30, 44, 103, 1)"></circle><circle r="5" cx="48.61" cy="660.52" fill="rgba(30, 44, 103, 1)"></circle><circle r="5" cx="228.25" cy="367.98" fill="rgba(30, 44, 103, 1)"></circle><circle r="5" cx="212.01" cy="489.52" fill="rgba(30, 44, 103, 1)"></circle><circle r="5" cx="195.57" cy="649.33" fill="rgba(30, 44, 103, 1)"></circle><circle r="5" cx="398.72" cy="400.34" fill="rgba(30, 44, 103, 1)"></circle><circle r="5" cx="349" cy="545.94" fill="rgba(30, 44, 103, 1)"></circle><circle r="5" cx="407.6" cy="662.56" fill="rgba(30, 44, 103, 1)"></circle><circle r="5" cx="520.06" cy="407.77" fill="rgba(30, 44, 103, 1)"></circle><circle r="5" cx="492.85" cy="526.69" fill="rgba(30, 44, 103, 1)"></circle><circle r="5" cx="551.14" cy="696.55" fill="rgba(30, 44, 103, 1)"></circle><circle r="5" cx="676.96" cy="373.91" fill="rgba(30, 44, 103, 1)"></circle><circle r="5" cx="645.51" cy="503.53" fill="rgba(30, 44, 103, 1)"></circle><circle r="5" cx="669.67" cy="686.82" fill="rgba(30, 44, 103, 1)"></circle><circle r="5" cx="808.38" cy="233.19" fill="rgba(30, 44, 103, 1)"></circle><circle r="5" cx="810.88" cy="392.62" fill="rgba(30, 44, 103, 1)"></circle><circle r="5" cx="794.91" cy="651.43" fill="rgba(30, 44, 103, 1)"></circle><circle r="5" cx="939.2" cy="-101.78" fill="rgba(30, 44, 103, 1)"></circle><circle r="5" cx="1010" cy="337.61" fill="rgba(30, 44, 103, 1)"></circle><circle r="5" cx="992.96" cy="552.8" fill="rgba(30, 44, 103, 1)"></circle><circle r="5" cx="1005.1" cy="711.37" fill="rgba(30, 44, 103, 1)"></circle><circle r="5" cx="1155.53" cy="-46.52" fill="rgba(30, 44, 103, 1)"></circle><circle r="5" cx="1088.97" cy="37.86" fill="rgba(30, 44, 103, 1)"></circle><circle r="5" cx="1142.44" cy="239.92" fill="rgba(30, 44, 103, 1)"></circle><circle r="5" cx="1142.01" cy="372.88" fill="rgba(30, 44, 103, 1)"></circle><circle r="5" cx="1107.68" cy="554.12" fill="rgba(30, 44, 103, 1)"></circle><circle r="5" cx="1095.83" cy="682.56" fill="rgba(30, 44, 103, 1)"></circle><circle r="5" cx="1248.34" cy="213.71" fill="rgba(30, 44, 103, 1)"></circle><circle r="5" cx="1276.05" cy="398.31" fill="rgba(30, 44, 103, 1)"></circle><circle r="5" cx="1283.48" cy="561.83" fill="rgba(30, 44, 103, 1)"></circle><circle r="5" cx="1293.78" cy="651.58" fill="rgba(30, 44, 103, 1)"></circle><circle r="5" cx="1425.82" cy="102.52" fill="rgba(30, 44, 103, 1)"></circle><circle r="5" cx="1425.95" cy="257.86" fill="rgba(30, 44, 103, 1)"></circle><circle r="5" cx="1409.16" cy="343.01" fill="rgba(30, 44, 103, 1)"></circle><circle r="5" cx="1419.31" cy="519.56" fill="rgba(30, 44, 103, 1)"></circle><circle r="5" cx="1398.37" cy="649.77" fill="rgba(30, 44, 103, 1)"></circle><circle r="5" cx="1590.63" cy="-83.3" fill="rgba(30, 44, 103, 1)"></circle><circle r="5" cx="1602.05" cy="43.99" fill="rgba(30, 44, 103, 1)"></circle><circle r="5" cx="1545.46" cy="236.39" fill="rgba(30, 44, 103, 1)"></circle><circle r="5" cx="1559.37" cy="349.03" fill="rgba(30, 44, 103, 1)"></circle><circle r="5" cx="1561.49" cy="554.94" fill="rgba(30, 44, 103, 1)"></circle><circle r="5" cx="1607.9" cy="651.31" fill="rgba(30, 44, 103, 1)"></circle><path d="M50.3 647.56L50.3 647.56" stroke="hsl(228.5, 77.2%, 51.5%)" stroke-width="1.5"></path><path d="M50.3 647.56L-79.09 659.33" stroke="hsl(228.5, 77.2%, 51.5%)" stroke-width="1.5"></path><path d="M50.3 647.56L41.12 504.85" stroke="hsl(228.5, 77.2%, 51.5%)" stroke-width="1.5"></path><path d="M657.43 403.24L657.43 403.24" stroke="hsl(228.5, 77.2%, 51.5%)" stroke-width="1.5"></path><path d="M657.43 403.24L667.84 546.21" stroke="hsl(228.5, 77.2%, 51.5%)" stroke-width="1.5"></path><path d="M937.63 366.04L937.63 366.04" stroke="hsl(228.5, 77.2%, 51.5%)" stroke-width="1.5"></path><path d="M937.63 366.04L797.79 345.64" stroke="hsl(228.5, 77.2%, 51.5%)" stroke-width="1.5"></path><path d="M937.63 366.04L1009.69 491.1" stroke="hsl(228.5, 77.2%, 51.5%)" stroke-width="1.5"></path><path d="M937.63 366.04L1092.46 384.74" stroke="hsl(228.5, 77.2%, 51.5%)" stroke-width="1.5"></path><path d="M937.63 366.04L834.16 526.81" stroke="hsl(228.5, 77.2%, 51.5%)" stroke-width="1.5"></path><path d="M937.63 366.04L1108.33 234.48" stroke="hsl(228.5, 77.2%, 51.5%)" stroke-width="1.5"></path><path d="M1108.33 234.48L1108.33 234.48" stroke="hsl(228.5, 77.2%, 51.5%)" stroke-width="1.5"></path><path d="M1108.33 234.48L1092.46 384.74" stroke="hsl(228.5, 77.2%, 51.5%)" stroke-width="1.5"></path><path d="M1108.33 234.48L1308.3 248.69" stroke="hsl(228.5, 77.2%, 51.5%)" stroke-width="1.5"></path><path d="M1108.33 234.48L1289.57 340.08" stroke="hsl(228.5, 77.2%, 51.5%)" stroke-width="1.5"></path><path d="M1405.23 218.49L1405.23 218.49" stroke="hsl(228.5, 77.2%, 51.5%)" stroke-width="1.5"></path><path d="M1405.23 218.49L1308.3 248.69" stroke="hsl(228.5, 77.2%, 51.5%)" stroke-width="1.5"></path><path d="M1405.23 218.49L1546.15 206.63" stroke="hsl(228.5, 77.2%, 51.5%)" stroke-width="1.5"></path><path d="M1405.23 218.49L1289.57 340.08" stroke="hsl(228.5, 77.2%, 51.5%)" stroke-width="1.5"></path><path d="M1408.67 411.22L1408.67 411.22" stroke="hsl(228.5, 77.2%, 51.5%)" stroke-width="1.5"></path><path d="M1408.67 411.22L1460.89 495.07" stroke="hsl(228.5, 77.2%, 51.5%)" stroke-width="1.5"></path><path d="M1408.67 411.22L1289.57 340.08" stroke="hsl(228.5, 77.2%, 51.5%)" stroke-width="1.5"></path><path d="M1408.67 411.22L1555.02 411.33" stroke="hsl(228.5, 77.2%, 51.5%)" stroke-width="1.5"></path><path d="M1546.15 206.63L1546.15 206.63" stroke="hsl(228.5, 77.2%, 51.5%)" stroke-width="1.5"></path><path d="M1546.15 206.63L1545.79 79.61" stroke="hsl(228.5, 77.2%, 51.5%)" stroke-width="1.5"></path><path d="M1555.02 411.33L1555.02 411.33" stroke="hsl(228.5, 77.2%, 51.5%)" stroke-width="1.5"></path><path d="M1555.02 411.33L1556.66 491.17" stroke="hsl(228.5, 77.2%, 51.5%)" stroke-width="1.5"></path><path d="M1555.02 411.33L1460.89 495.07" stroke="hsl(228.5, 77.2%, 51.5%)" stroke-width="1.5"></path><path d="M-109.48 520.77L-109.48 520.77" stroke="hsl(228.5, 77.2%, 51.5%)" stroke-width="1.5"></path><path d="M-109.48 520.77L-79.09 659.33" stroke="hsl(228.5, 77.2%, 51.5%)" stroke-width="1.5"></path><path d="M-109.48 520.77L41.12 504.85" stroke="hsl(228.5, 77.2%, 51.5%)" stroke-width="1.5"></path><path d="M-79.09 659.33L-79.09 659.33" stroke="hsl(228.5, 77.2%, 51.5%)" stroke-width="1.5"></path><path d="M-79.09 659.33L41.12 504.85" stroke="hsl(228.5, 77.2%, 51.5%)" stroke-width="1.5"></path><path d="M41.12 504.85L41.12 504.85" stroke="hsl(228.5, 77.2%, 51.5%)" stroke-width="1.5"></path><path d="M41.12 504.85L187.62 539.93" stroke="hsl(228.5, 77.2%, 51.5%)" stroke-width="1.5"></path><path d="M41.12 504.85L248.15 680.9" stroke="hsl(228.5, 77.2%, 51.5%)" stroke-width="1.5"></path><path d="M41.12 504.85L376.53 541.02" stroke="hsl(228.5, 77.2%, 51.5%)" stroke-width="1.5"></path><path d="M187.62 539.93L187.62 539.93" stroke="hsl(228.5, 77.2%, 51.5%)" stroke-width="1.5"></path><path d="M187.62 539.93L248.15 680.9" stroke="hsl(228.5, 77.2%, 51.5%)" stroke-width="1.5"></path><path d="M187.62 539.93L50.3 647.56" stroke="hsl(228.5, 77.2%, 51.5%)" stroke-width="1.5"></path><path d="M187.62 539.93L376.53 541.02" stroke="hsl(228.5, 77.2%, 51.5%)" stroke-width="1.5"></path><path d="M248.15 680.9L248.15 680.9" stroke="hsl(228.5, 77.2%, 51.5%)" stroke-width="1.5"></path><path d="M248.15 680.9L396.28 702.99" stroke="hsl(228.5, 77.2%, 51.5%)" stroke-width="1.5"></path><path d="M376.53 541.02L376.53 541.02" stroke="hsl(228.5, 77.2%, 51.5%)" stroke-width="1.5"></path><path d="M376.53 541.02L512.04 551.54" stroke="hsl(228.5, 77.2%, 51.5%)" stroke-width="1.5"></path><path d="M376.53 541.02L396.28 702.99" stroke="hsl(228.5, 77.2%, 51.5%)" stroke-width="1.5"></path><path d="M376.53 541.02L248.15 680.9" stroke="hsl(228.5, 77.2%, 51.5%)" stroke-width="1.5"></path><path d="M396.28 702.99L396.28 702.99" stroke="hsl(228.5, 77.2%, 51.5%)" stroke-width="1.5"></path><path d="M396.28 702.99L531.1 706.59" stroke="hsl(228.5, 77.2%, 51.5%)" stroke-width="1.5"></path><path d="M512.04 551.54L512.04 551.54" stroke="hsl(228.5, 77.2%, 51.5%)" stroke-width="1.5"></path><path d="M512.04 551.54L667.84 546.21" stroke="hsl(228.5, 77.2%, 51.5%)" stroke-width="1.5"></path><path d="M512.04 551.54L531.1 706.59" stroke="hsl(228.5, 77.2%, 51.5%)" stroke-width="1.5"></path><path d="M512.04 551.54L396.28 702.99" stroke="hsl(228.5, 77.2%, 51.5%)" stroke-width="1.5"></path><path d="M531.1 706.59L531.1 706.59" stroke="hsl(228.5, 77.2%, 51.5%)" stroke-width="1.5"></path><path d="M531.1 706.59L682.32 693.45" stroke="hsl(228.5, 77.2%, 51.5%)" stroke-width="1.5"></path><path d="M531.1 706.59L667.84 546.21" stroke="hsl(228.5, 77.2%, 51.5%)" stroke-width="1.5"></path><path d="M531.1 706.59L376.53 541.02" stroke="hsl(228.5, 77.2%, 51.5%)" stroke-width="1.5"></path><path d="M667.84 546.21L667.84 546.21" stroke="hsl(228.5, 77.2%, 51.5%)" stroke-width="1.5"></path><path d="M667.84 546.21L682.32 693.45" stroke="hsl(228.5, 77.2%, 51.5%)" stroke-width="1.5"></path><path d="M682.32 693.45L682.32 693.45" stroke="hsl(228.5, 77.2%, 51.5%)" stroke-width="1.5"></path><path d="M797.79 345.64L797.79 345.64" stroke="hsl(228.5, 77.2%, 51.5%)" stroke-width="1.5"></path><path d="M797.79 345.64L657.43 403.24" stroke="hsl(228.5, 77.2%, 51.5%)" stroke-width="1.5"></path><path d="M797.79 345.64L834.16 526.81" stroke="hsl(228.5, 77.2%, 51.5%)" stroke-width="1.5"></path><path d="M797.79 345.64L667.84 546.21" stroke="hsl(228.5, 77.2%, 51.5%)" stroke-width="1.5"></path><path d="M797.79 345.64L1009.69 491.1" stroke="hsl(228.5, 77.2%, 51.5%)" stroke-width="1.5"></path><path d="M797.79 345.64L1092.46 384.74" stroke="hsl(228.5, 77.2%, 51.5%)" stroke-width="1.5"></path><path d="M834.16 526.81L834.16 526.81" stroke="hsl(228.5, 77.2%, 51.5%)" stroke-width="1.5"></path><path d="M834.16 526.81L667.84 546.21" stroke="hsl(228.5, 77.2%, 51.5%)" stroke-width="1.5"></path><path d="M834.16 526.81L854.63 697.45" stroke="hsl(228.5, 77.2%, 51.5%)" stroke-width="1.5"></path><path d="M834.16 526.81L1009.69 491.1" stroke="hsl(228.5, 77.2%, 51.5%)" stroke-width="1.5"></path><path d="M834.16 526.81L959.57 662.21" stroke="hsl(228.5, 77.2%, 51.5%)" stroke-width="1.5"></path><path d="M854.63 697.45L854.63 697.45" stroke="hsl(228.5, 77.2%, 51.5%)" stroke-width="1.5"></path><path d="M854.63 697.45L959.57 662.21" stroke="hsl(228.5, 77.2%, 51.5%)" stroke-width="1.5"></path><path d="M854.63 697.45L682.32 693.45" stroke="hsl(228.5, 77.2%, 51.5%)" stroke-width="1.5"></path><path d="M854.63 697.45L667.84 546.21" stroke="hsl(228.5, 77.2%, 51.5%)" stroke-width="1.5"></path><path d="M854.63 697.45L1009.69 491.1" stroke="hsl(228.5, 77.2%, 51.5%)" stroke-width="1.5"></path><path d="M854.63 697.45L1124 655.33" stroke="hsl(228.5, 77.2%, 51.5%)" stroke-width="1.5"></path><path d="M1009.69 491.1L1009.69 491.1" stroke="hsl(228.5, 77.2%, 51.5%)" stroke-width="1.5"></path><path d="M1009.69 491.1L1103.98 517.41" stroke="hsl(228.5, 77.2%, 51.5%)" stroke-width="1.5"></path><path d="M959.57 662.21L959.57 662.21" stroke="hsl(228.5, 77.2%, 51.5%)" stroke-width="1.5"></path><path d="M959.57 662.21L1124 655.33" stroke="hsl(228.5, 77.2%, 51.5%)" stroke-width="1.5"></path><path d="M959.57 662.21L1009.69 491.1" stroke="hsl(228.5, 77.2%, 51.5%)" stroke-width="1.5"></path><path d="M959.57 662.21L1103.98 517.41" stroke="hsl(228.5, 77.2%, 51.5%)" stroke-width="1.5"></path><path d="M959.57 662.21L682.32 693.45" stroke="hsl(228.5, 77.2%, 51.5%)" stroke-width="1.5"></path><path d="M1092.46 384.74L1092.46 384.74" stroke="hsl(228.5, 77.2%, 51.5%)" stroke-width="1.5"></path><path d="M1092.46 384.74L1103.98 517.41" stroke="hsl(228.5, 77.2%, 51.5%)" stroke-width="1.5"></path><path d="M1092.46 384.74L1009.69 491.1" stroke="hsl(228.5, 77.2%, 51.5%)" stroke-width="1.5"></path><path d="M1103.98 517.41L1103.98 517.41" stroke="hsl(228.5, 77.2%, 51.5%)" stroke-width="1.5"></path><path d="M1103.98 517.41L1124 655.33" stroke="hsl(228.5, 77.2%, 51.5%)" stroke-width="1.5"></path><path d="M1103.98 517.41L1282.62 512.07" stroke="hsl(228.5, 77.2%, 51.5%)" stroke-width="1.5"></path><path d="M1124 655.33L1124 655.33" stroke="hsl(228.5, 77.2%, 51.5%)" stroke-width="1.5"></path><path d="M1124 655.33L1259.45 644.61" stroke="hsl(228.5, 77.2%, 51.5%)" stroke-width="1.5"></path><path d="M1253.08 -51.83L1253.08 -51.83" stroke="hsl(228.5, 77.2%, 51.5%)" stroke-width="1.5"></path><path d="M1253.08 -51.83L1288.69 53.8" stroke="hsl(228.5, 77.2%, 51.5%)" stroke-width="1.5"></path><path d="M1253.08 -51.83L1409.16 -81.17" stroke="hsl(228.5, 77.2%, 51.5%)" stroke-width="1.5"></path><path d="M1253.08 -51.83L1387.79 45.07" stroke="hsl(228.5, 77.2%, 51.5%)" stroke-width="1.5"></path><path d="M1253.08 -51.83L1308.3 248.69" stroke="hsl(228.5, 77.2%, 51.5%)" stroke-width="1.5"></path><path d="M1253.08 -51.83L1405.23 218.49" stroke="hsl(228.5, 77.2%, 51.5%)" stroke-width="1.5"></path><path d="M1253.08 -51.83L1108.33 234.48" stroke="hsl(228.5, 77.2%, 51.5%)" stroke-width="1.5"></path><path d="M1288.69 53.8L1288.69 53.8" stroke="hsl(228.5, 77.2%, 51.5%)" stroke-width="1.5"></path><path d="M1288.69 53.8L1387.79 45.07" stroke="hsl(228.5, 77.2%, 51.5%)" stroke-width="1.5"></path><path d="M1288.69 53.8L1409.16 -81.17" stroke="hsl(228.5, 77.2%, 51.5%)" stroke-width="1.5"></path><path d="M1288.69 53.8L1308.3 248.69" stroke="hsl(228.5, 77.2%, 51.5%)" stroke-width="1.5"></path><path d="M1288.69 53.8L1405.23 218.49" stroke="hsl(228.5, 77.2%, 51.5%)" stroke-width="1.5"></path><path d="M1288.69 53.8L1108.33 234.48" stroke="hsl(228.5, 77.2%, 51.5%)" stroke-width="1.5"></path><path d="M1308.3 248.69L1308.3 248.69" stroke="hsl(228.5, 77.2%, 51.5%)" stroke-width="1.5"></path><path d="M1308.3 248.69L1289.57 340.08" stroke="hsl(228.5, 77.2%, 51.5%)" stroke-width="1.5"></path><path d="M1308.3 248.69L1408.67 411.22" stroke="hsl(228.5, 77.2%, 51.5%)" stroke-width="1.5"></path><path d="M1289.57 340.08L1289.57 340.08" stroke="hsl(228.5, 77.2%, 51.5%)" stroke-width="1.5"></path><path d="M1289.57 340.08L1282.62 512.07" stroke="hsl(228.5, 77.2%, 51.5%)" stroke-width="1.5"></path><path d="M1289.57 340.08L1092.46 384.74" stroke="hsl(228.5, 77.2%, 51.5%)" stroke-width="1.5"></path><path d="M1282.62 512.07L1282.62 512.07" stroke="hsl(228.5, 77.2%, 51.5%)" stroke-width="1.5"></path><path d="M1282.62 512.07L1259.45 644.61" stroke="hsl(228.5, 77.2%, 51.5%)" stroke-width="1.5"></path><path d="M1282.62 512.07L1408.67 411.22" stroke="hsl(228.5, 77.2%, 51.5%)" stroke-width="1.5"></path><path d="M1282.62 512.07L1460.89 495.07" stroke="hsl(228.5, 77.2%, 51.5%)" stroke-width="1.5"></path><path d="M1282.62 512.07L1124 655.33" stroke="hsl(228.5, 77.2%, 51.5%)" stroke-width="1.5"></path><path d="M1259.45 644.61L1259.45 644.61" stroke="hsl(228.5, 77.2%, 51.5%)" stroke-width="1.5"></path><path d="M1259.45 644.61L1451.5 663.33" stroke="hsl(228.5, 77.2%, 51.5%)" stroke-width="1.5"></path><path d="M1409.16 -81.17L1409.16 -81.17" stroke="hsl(228.5, 77.2%, 51.5%)" stroke-width="1.5"></path><path d="M1409.16 -81.17L1387.79 45.07" stroke="hsl(228.5, 77.2%, 51.5%)" stroke-width="1.5"></path><path d="M1409.16 -81.17L1602.5 -93.54" stroke="hsl(228.5, 77.2%, 51.5%)" stroke-width="1.5"></path><path d="M1387.79 45.07L1387.79 45.07" stroke="hsl(228.5, 77.2%, 51.5%)" stroke-width="1.5"></path><path d="M1387.79 45.07L1545.79 79.61" stroke="hsl(228.5, 77.2%, 51.5%)" stroke-width="1.5"></path><path d="M1387.79 45.07L1405.23 218.49" stroke="hsl(228.5, 77.2%, 51.5%)" stroke-width="1.5"></path><path d="M1460.89 495.07L1460.89 495.07" stroke="hsl(228.5, 77.2%, 51.5%)" stroke-width="1.5"></path><path d="M1460.89 495.07L1556.66 491.17" stroke="hsl(228.5, 77.2%, 51.5%)" stroke-width="1.5"></path><path d="M1460.89 495.07L1451.5 663.33" stroke="hsl(228.5, 77.2%, 51.5%)" stroke-width="1.5"></path><path d="M1460.89 495.07L1289.57 340.08" stroke="hsl(228.5, 77.2%, 51.5%)" stroke-width="1.5"></path><path d="M1451.5 663.33L1451.5 663.33" stroke="hsl(228.5, 77.2%, 51.5%)" stroke-width="1.5"></path><path d="M1451.5 663.33L1584.31 705.17" stroke="hsl(228.5, 77.2%, 51.5%)" stroke-width="1.5"></path><path d="M1602.5 -93.54L1602.5 -93.54" stroke="hsl(228.5, 77.2%, 51.5%)" stroke-width="1.5"></path><path d="M1602.5 -93.54L1545.79 79.61" stroke="hsl(228.5, 77.2%, 51.5%)" stroke-width="1.5"></path><path d="M1545.79 79.61L1545.79 79.61" stroke="hsl(228.5, 77.2%, 51.5%)" stroke-width="1.5"></path><path d="M1545.79 79.61L1405.23 218.49" stroke="hsl(228.5, 77.2%, 51.5%)" stroke-width="1.5"></path><path d="M1556.66 491.17L1556.66 491.17" stroke="hsl(228.5, 77.2%, 51.5%)" stroke-width="1.5"></path><path d="M1556.66 491.17L1408.67 411.22" stroke="hsl(228.5, 77.2%, 51.5%)" stroke-width="1.5"></path><path d="M1556.66 491.17L1451.5 663.33" stroke="hsl(228.5, 77.2%, 51.5%)" stroke-width="1.5"></path><path d="M1556.66 491.17L1584.31 705.17" stroke="hsl(228.5, 77.2%, 51.5%)" stroke-width="1.5"></path><path d="M1584.31 705.17L1584.31 705.17" stroke="hsl(228.5, 77.2%, 51.5%)" stroke-width="1.5"></path><path d="M1584.31 705.17L1460.89 495.07" stroke="hsl(228.5, 77.2%, 51.5%)" stroke-width="1.5"></path><path d="M1584.31 705.17L1555.02 411.33" stroke="hsl(228.5, 77.2%, 51.5%)" stroke-width="1.5"></path><circle r="25" cx="50.3" cy="647.56" fill="url(#SvgjsRadialGradient1197)"></circle><circle r="25" cx="657.43" cy="403.24" fill="url(#SvgjsRadialGradient1197)"></circle><circle r="25" cx="937.63" cy="366.04" fill="url(#SvgjsRadialGradient1197)"></circle><circle r="25" cx="1108.33" cy="234.48" fill="url(#SvgjsRadialGradient1197)"></circle><circle r="25" cx="1405.23" cy="218.49" fill="url(#SvgjsRadialGradient1197)"></circle><circle r="25" cx="1408.67" cy="411.22" fill="url(#SvgjsRadialGradient1197)"></circle><circle r="25" cx="1546.15" cy="206.63" fill="url(#SvgjsRadialGradient1197)"></circle><circle r="25" cx="1555.02" cy="411.33" fill="url(#SvgjsRadialGradient1197)"></circle><circle r="5" cx="-109.48" cy="520.77" fill="#8b9ad9"></circle><circle r="5" cx="-79.09" cy="659.33" fill="#8b9ad9"></circle><circle r="5" cx="41.12" cy="504.85" fill="#8b9ad9"></circle><circle r="5" cx="187.62" cy="539.93" fill="#8b9ad9"></circle><circle r="5" cx="248.15" cy="680.9" fill="#8b9ad9"></circle><circle r="5" cx="376.53" cy="541.02" fill="#8b9ad9"></circle><circle r="5" cx="396.28" cy="702.99" fill="#8b9ad9"></circle><circle r="5" cx="512.04" cy="551.54" fill="#8b9ad9"></circle><circle r="5" cx="531.1" cy="706.59" fill="#8b9ad9"></circle><circle r="5" cx="667.84" cy="546.21" fill="#8b9ad9"></circle><circle r="5" cx="682.32" cy="693.45" fill="#8b9ad9"></circle><circle r="5" cx="797.79" cy="345.64" fill="#8b9ad9"></circle><circle r="5" cx="834.16" cy="526.81" fill="#8b9ad9"></circle><circle r="5" cx="854.63" cy="697.45" fill="#8b9ad9"></circle><circle r="5" cx="1009.69" cy="491.1" fill="#8b9ad9"></circle><circle r="5" cx="959.57" cy="662.21" fill="#8b9ad9"></circle><circle r="5" cx="1092.46" cy="384.74" fill="#8b9ad9"></circle><circle r="5" cx="1103.98" cy="517.41" fill="#8b9ad9"></circle><circle r="5" cx="1124" cy="655.33" fill="#8b9ad9"></circle><circle r="5" cx="1253.08" cy="-51.83" fill="#8b9ad9"></circle><circle r="5" cx="1288.69" cy="53.8" fill="#8b9ad9"></circle><circle r="5" cx="1308.3" cy="248.69" fill="#8b9ad9"></circle><circle r="5" cx="1289.57" cy="340.08" fill="#8b9ad9"></circle><circle r="5" cx="1282.62" cy="512.07" fill="#8b9ad9"></circle><circle r="5" cx="1259.45" cy="644.61" fill="#8b9ad9"></circle><circle r="5" cx="1409.16" cy="-81.17" fill="#8b9ad9"></circle><circle r="5" cx="1387.79" cy="45.07" fill="#8b9ad9"></circle><circle r="5" cx="1460.89" cy="495.07" fill="#8b9ad9"></circle><circle r="5" cx="1451.5" cy="663.33" fill="#8b9ad9"></circle><circle r="5" cx="1602.5" cy="-93.54" fill="#8b9ad9"></circle><circle r="5" cx="1545.79" cy="79.61" fill="#8b9ad9"></circle><circle r="5" cx="1556.66" cy="491.17" fill="#8b9ad9"></circle><circle r="5" cx="1584.31" cy="705.17" fill="#8b9ad9"></circle></g><defs><mask id="SvgjsMask1196"><rect width="1440" height="560" fill="#ffffff"></rect></mask><radialGradient id="SvgjsRadialGradient1197"><stop stop-color="#ffffff" offset="0.1"></stop><stop stop-color="#1735b3" offset="0.2"></stop><stop stop-color="rgba(23, 53, 179, 0)" offset="1"></stop></radialGradient></defs></svg>