<svg xmlns="http://www.w3.org/2000/svg" version="1.1" xmlns:xlink="http://www.w3.org/1999/xlink" xmlns:svgjs="http://svgjs.com/svgjs" width="1440" height="900" preserveAspectRatio="none" viewBox="0 0 1440 900"><g mask="url(&quot;#SvgjsMask1018&quot;)" fill="none"><rect width="1440" height="900" x="0" y="0" fill="rgba(6, 0, 61, 1)"></rect><path d="M1374 795L1373 129" stroke-width="8" stroke="url(#SvgjsLinearGradient1019)" stroke-linecap="round" class="Down"></path><path d="M349 381L348 3" stroke-width="6" stroke="url(#SvgjsLinearGradient1019)" stroke-linecap="round" class="Down"></path><path d="M1056 851L1055 588" stroke-width="10" stroke="url(#SvgjsLinearGradient1020)" stroke-linecap="round" class="Up"></path><path d="M51 564L50 1031" stroke-width="10" stroke="url(#SvgjsLinearGradient1020)" stroke-linecap="round" class="Up"></path><path d="M900 535L899 156" stroke-width="10" stroke="url(#SvgjsLinearGradient1019)" stroke-linecap="round" class="Down"></path><path d="M1319 822L1318 510" stroke-width="6" stroke="url(#SvgjsLinearGradient1019)" stroke-linecap="round" class="Down"></path><path d="M955 637L954 250" stroke-width="10" stroke="url(#SvgjsLinearGradient1020)" stroke-linecap="round" class="Up"></path><path d="M957 351L956 660" stroke-width="8" stroke="url(#SvgjsLinearGradient1019)" stroke-linecap="round" class="Down"></path><path d="M967 884L966 635" stroke-width="8" stroke="url(#SvgjsLinearGradient1019)" stroke-linecap="round" class="Down"></path><path d="M102 559L101 59" stroke-width="6" stroke="url(#SvgjsLinearGradient1020)" stroke-linecap="round" class="Up"></path><path d="M193 204L192 -78" stroke-width="10" stroke="url(#SvgjsLinearGradient1020)" stroke-linecap="round" class="Up"></path><path d="M697 537L696 107" stroke-width="6" stroke="url(#SvgjsLinearGradient1020)" stroke-linecap="round" class="Up"></path><path d="M1166 263L1165 903" stroke-width="10" stroke="url(#SvgjsLinearGradient1019)" stroke-linecap="round" class="Down"></path><path d="M1008 477L1007 226" stroke-width="6" stroke="url(#SvgjsLinearGradient1019)" stroke-linecap="round" class="Down"></path><path d="M1193 3L1192 623" stroke-width="6" stroke="url(#SvgjsLinearGradient1019)" stroke-linecap="round" class="Down"></path><path d="M332 783L331 388" stroke-width="8" stroke="url(#SvgjsLinearGradient1019)" stroke-linecap="round" class="Down"></path><path d="M1369 854L1368 202" stroke-width="8" stroke="url(#SvgjsLinearGradient1020)" stroke-linecap="round" class="Up"></path><path d="M380 145L379 -186" stroke-width="6" stroke="url(#SvgjsLinearGradient1019)" stroke-linecap="round" class="Down"></path><path d="M1327 561L1326 -8" stroke-width="10" stroke="url(#SvgjsLinearGradient1019)" stroke-linecap="round" class="Down"></path><path d="M1344 605L1343 160" stroke-width="6" stroke="url(#SvgjsLinearGradient1020)" stroke-linecap="round" class="Up"></path><path d="M381 247L380 655" stroke-width="8" stroke="url(#SvgjsLinearGradient1019)" stroke-linecap="round" class="Down"></path><path d="M347 466L346 743" stroke-width="6" stroke="url(#SvgjsLinearGradient1019)" stroke-linecap="round" class="Down"></path><path d="M373 37L372 584" stroke-width="8" stroke="url(#SvgjsLinearGradient1020)" stroke-linecap="round" class="Up"></path><path d="M1384 739L1383 479" stroke-width="10" stroke="url(#SvgjsLinearGradient1020)" stroke-linecap="round" class="Up"></path><path d="M138 304L137 -263" stroke-width="10" stroke="url(#SvgjsLinearGradient1020)" stroke-linecap="round" class="Up"></path><path d="M1127 241L1126 894" stroke-width="6" stroke="url(#SvgjsLinearGradient1020)" stroke-linecap="round" class="Up"></path><path d="M286 241L285 479" stroke-width="10" stroke="url(#SvgjsLinearGradient1019)" stroke-linecap="round" class="Down"></path><path d="M409 751L408 1188" stroke-width="6" stroke="url(#SvgjsLinearGradient1019)" stroke-linecap="round" class="Down"></path><path d="M375 138L374 -464" stroke-width="8" stroke="url(#SvgjsLinearGradient1020)" stroke-linecap="round" class="Up"></path><path d="M497 730L496 1213" stroke-width="8" stroke="url(#SvgjsLinearGradient1020)" stroke-linecap="round" class="Up"></path><path d="M1171 75L1170 593" stroke-width="6" stroke="url(#SvgjsLinearGradient1019)" stroke-linecap="round" class="Down"></path><path d="M682 12L681 -246" stroke-width="8" stroke="url(#SvgjsLinearGradient1019)" stroke-linecap="round" class="Down"></path><path d="M1196 477L1195 36" stroke-width="10" stroke="url(#SvgjsLinearGradient1020)" stroke-linecap="round" class="Up"></path><path d="M125 688L124 391" stroke-width="6" stroke="url(#SvgjsLinearGradient1019)" stroke-linecap="round" class="Down"></path><path d="M900 151L899 714" stroke-width="6" stroke="url(#SvgjsLinearGradient1020)" stroke-linecap="round" class="Up"></path><path d="M1313 293L1312 626" stroke-width="6" stroke="url(#SvgjsLinearGradient1020)" stroke-linecap="round" class="Up"></path></g><defs><mask id="SvgjsMask1018"><rect width="1440" height="900" fill="#ffffff"></rect></mask><linearGradient x1="0%" y1="0%" x2="0%" y2="100%" id="SvgjsLinearGradient1019"><stop stop-color="rgba(63, 0, 211, 0)" offset="0"></stop><stop stop-color="rgba(63, 0, 211, 1)" offset="1"></stop></linearGradient><linearGradient x1="0%" y1="100%" x2="0%" y2="0%" id="SvgjsLinearGradient1020"><stop stop-color="rgba(63, 0, 211, 0)" offset="0"></stop><stop stop-color="rgba(63, 0, 211, 1)" offset="1"></stop></linearGradient></defs></svg>