<svg xmlns="http://www.w3.org/2000/svg" version="1.1" xmlns:xlink="http://www.w3.org/1999/xlink" xmlns:svgjs="http://svgjs.com/svgjs" width="1440" height="900" preserveAspectRatio="none" viewBox="0 0 1440 900"><g mask="url(&quot;#SvgjsMask3393&quot;)" fill="none"><rect width="1440" height="900" x="0" y="0" fill="rgba(6, 0, 61, 1)"></rect><rect width="105.4" height="105.4" clip-path="url(&quot;#SvgjsClipPath3394&quot;)" x="356.12" y="46.5" fill="url(#SvgjsPattern3395)" transform="rotate(188.59, 408.82, 99.2)"></rect><rect width="480" height="480" clip-path="url(&quot;#SvgjsClipPath3396&quot;)" x="944.63" y="67.99" fill="url(#SvgjsPattern3397)" transform="rotate(216.5, 1184.63, 307.99)"></rect><rect width="60" height="60" clip-path="url(&quot;#SvgjsClipPath3398&quot;)" x="50.45" y="378.59" fill="url(#SvgjsPattern3399)" transform="rotate(262.77, 80.45, 408.59)"></rect><path d="M357.1 324.16 L282.38 121.46000000000001L437.67845880209705 104.87154119790297z" stroke="rgba(59, 0, 201, 1)" stroke-width="1.85" stroke-dasharray="2, 2"></path><rect width="60" height="60" clip-path="url(&quot;#SvgjsClipPath3400&quot;)" x="653.88" y="607.07" fill="url(#SvgjsPattern3401)" transform="rotate(215.78, 683.88, 637.07)"></rect><rect width="204" height="204" clip-path="url(&quot;#SvgjsClipPath3402&quot;)" x="656.78" y="357.71" fill="url(#SvgjsPattern3403)" transform="rotate(340.35, 758.78, 459.71)"></rect><circle r="85.63960909824176" cx="1024.8" cy="891.3" fill="rgba(59, 0, 201, 1)"></circle><rect width="504.24" height="504.24" clip-path="url(&quot;#SvgjsClipPath3404&quot;)" x="962.64" y="487.53" fill="url(#SvgjsPattern3405)" transform="rotate(291.79, 1214.76, 739.65)"></rect></g><defs><mask id="SvgjsMask3393"><rect width="1440" height="900" fill="#ffffff"></rect></mask><pattern x="0" y="0" width="10.54" height="10.54" patternUnits="userSpaceOnUse" id="SvgjsPattern3395"><path d="M5.27 1L5.27 9.54M1 5.27L9.54 5.27" stroke="rgba(0, 185, 163, 1)" fill="none" stroke-width="1"></path></pattern><clipPath id="SvgjsClipPath3394"><circle r="26.35" cx="408.82" cy="99.2"></circle></clipPath><pattern x="0" y="0" width="6" height="6" patternUnits="userSpaceOnUse" id="SvgjsPattern3397"><path d="M0 6L3 0L6 6" stroke="rgba(59, 0, 201, 1)" fill="none"></path></pattern><clipPath id="SvgjsClipPath3396"><circle r="120" cx="1184.63" cy="307.99"></circle></clipPath><pattern x="0" y="0" width="6" height="6" patternUnits="userSpaceOnUse" id="SvgjsPattern3399"><path d="M0 6L3 0L6 6" stroke="rgba(255, 255, 255, 1)" fill="none"></path></pattern><clipPath id="SvgjsClipPath3398"><circle r="15" cx="80.45" cy="408.59"></circle></clipPath><pattern x="0" y="0" width="6" height="6" patternUnits="userSpaceOnUse" id="SvgjsPattern3401"><path d="M3 1L3 5M1 3L5 3" stroke="rgba(255, 255, 255, 1)" fill="none" stroke-width="1"></path></pattern><clipPath id="SvgjsClipPath3400"><circle r="15" cx="683.88" cy="637.07"></circle></clipPath><pattern x="0" y="0" width="6" height="6" patternUnits="userSpaceOnUse" id="SvgjsPattern3403"><path d="M3 1L3 5M1 3L5 3" stroke="rgba(0, 185, 163, 1)" fill="none" stroke-width="1"></path></pattern><clipPath id="SvgjsClipPath3402"><circle r="51" cx="758.78" cy="459.71"></circle></clipPath><pattern x="0" y="0" width="504.24" height="7.64" patternUnits="userSpaceOnUse" id="SvgjsPattern3405"><rect width="504.24" height="3.82" x="0" y="0" fill="rgba(59, 0, 201, 1)"></rect><rect width="504.24" height="3.82" x="0" y="3.82" fill="rgba(0, 0, 0, 0)"></rect></pattern><clipPath id="SvgjsClipPath3404"><circle r="126.06" cx="1214.76" cy="739.65"></circle></clipPath></defs></svg>