<svg xmlns="http://www.w3.org/2000/svg" version="1.1" xmlns:xlink="http://www.w3.org/1999/xlink" xmlns:svgjs="http://svgjs.com/svgjs" width="1440" height="900" preserveAspectRatio="none" viewBox="0 0 1440 900"><g mask="url(&quot;#SvgjsMask3453&quot;)" fill="none"><rect width="1440" height="900" x="0" y="0" fill="rgba(6, 0, 61, 1)"></rect><rect width="156" height="156" clip-path="url(&quot;#SvgjsClipPath3454&quot;)" x="975.59" y="569.61" fill="url(#SvgjsPattern3455)" transform="rotate(123.17, 1053.59, 647.61)"></rect><circle r="138.87208348377445" cx="9.72" cy="653.75" fill="rgba(59, 0, 201, 1)"></circle><path d="M1255.17 484.73L1242.7 487.65 1237.12 476.12 1224.65 479.03 1219.07 467.51 1206.6 470.42 1201.02 458.89" stroke="rgba(0, 185, 163, 1)" stroke-width="2.26" stroke-dasharray="3, 3"></path><rect width="456" height="456" clip-path="url(&quot;#SvgjsClipPath3456&quot;)" x="168.95" y="110.28" fill="url(#SvgjsPattern3457)" transform="rotate(299.44, 396.95, 338.28)"></rect><path d="M320.91 513.73L313.94 502.98 322.9 493.83 315.94 483.08 324.89 473.93 317.93 463.18 326.89 454.03M328.87 514.53L321.9 503.78 330.86 494.63 323.9 483.88 332.85 474.73 325.89 463.98 334.85 454.83M336.83 515.33L329.86 504.58 338.82 495.42 331.86 484.68 340.81 475.52 333.85 464.78 342.81 455.62" stroke="rgba(255, 255, 255, 1)" stroke-width="2.32"></path><rect width="539.84" height="539.84" clip-path="url(&quot;#SvgjsClipPath3458&quot;)" x="22.15" y="138.64" fill="url(#SvgjsPattern3459)" transform="rotate(123.38, 292.07, 408.56)"></rect><rect width="191.88" height="191.88" clip-path="url(&quot;#SvgjsClipPath3460&quot;)" x="-34.6" y="167.17" fill="url(#SvgjsPattern3461)" transform="rotate(176.42, 61.34, 263.11)"></rect><path d="M307.96000000000004 635.65 L450.16 772.36L248.08896925013258 834.9760307498675z" stroke="rgba(255, 255, 255, 1)" stroke-width="1.82" stroke-dasharray="3, 3"></path></g><defs><mask id="SvgjsMask3453"><rect width="1440" height="900" fill="#ffffff"></rect></mask><pattern x="0" y="0" width="156" height="6" patternUnits="userSpaceOnUse" id="SvgjsPattern3455"><rect width="156" height="3" x="0" y="0" fill="rgba(0, 185, 163, 1)"></rect><rect width="156" height="3" x="0" y="3" fill="rgba(0, 0, 0, 0)"></rect></pattern><clipPath id="SvgjsClipPath3454"><circle r="39" cx="1053.59" cy="647.61"></circle></clipPath><pattern x="0" y="0" width="456" height="6" patternUnits="userSpaceOnUse" id="SvgjsPattern3457"><rect width="456" height="3" x="0" y="0" fill="rgba(0, 185, 163, 1)"></rect><rect width="456" height="3" x="0" y="3" fill="rgba(0, 0, 0, 0)"></rect></pattern><clipPath id="SvgjsClipPath3456"><circle r="114" cx="396.95" cy="338.28"></circle></clipPath><pattern x="0" y="0" width="9.64" height="9.64" patternUnits="userSpaceOnUse" id="SvgjsPattern3459"><path d="M0 9.64L4.82 0L9.64 9.64" stroke="rgba(255, 255, 255, 1)" fill="none"></path></pattern><clipPath id="SvgjsClipPath3458"><circle r="134.96" cx="292.07" cy="408.56"></circle></clipPath><pattern x="0" y="0" width="191.88" height="7.38" patternUnits="userSpaceOnUse" id="SvgjsPattern3461"><rect width="191.88" height="3.69" x="0" y="0" fill="rgba(0, 185, 163, 1)"></rect><rect width="191.88" height="3.69" x="0" y="3.69" fill="rgba(0, 0, 0, 0)"></rect></pattern><clipPath id="SvgjsClipPath3460"><circle r="47.97" cx="61.34" cy="263.11"></circle></clipPath></defs></svg>