<svg xmlns="http://www.w3.org/2000/svg" version="1.1" xmlns:xlink="http://www.w3.org/1999/xlink" xmlns:svgjs="http://svgjs.dev/svgjs" viewBox="0 0 800 800"><defs><linearGradient x1="50%" y1="0%" x2="50%" y2="100%" id="uundulate-grad"><stop stop-color="#3f00d3" stop-opacity="1" offset="45%"></stop><stop stop-color="#00b9a3" stop-opacity="1" offset="100%"></stop></linearGradient></defs><g stroke-width="2" stroke="url(#uundulate-grad)" fill="none"><path d="M915.5232640886547 306.5102608763093C931.9635632314844 539.1466629211911 809.696807631833 797.9918368812989 619.571413796268 933.0559461448813C429.446019960703 1068.1200554084637 136.6429464790907 1062.2670630341006 2.921373677941858 954.8179853415054C-130.80019912320705 847.3689076489104 -6.491039229584771 640.8918168735597 -22.29213564924777 417.3003732204255C-38.09323206891082 193.7089295672913 -190.20516279476044 6.76638015874903 -72.923889136441 -118.42094419353782C44.35738452187843 -243.60826854582467 334.73148765545784 -272.1261180601036 540.6579779106859 -183.59878367055228C746.5844681659139 -95.07144928100092 899.0829649458253 73.87385883142747 915.5232640886547 306.5102608763093C931.9635632314844 539.1466629211911 809.696807631833 797.9918368812989 619.571413796268 933.0559461448813 "></path><path d="M892.0904508705803 310.75977089107573C907.7834636887355 532.8217910248268 791.0742878890687 779.9012752594749 609.5909574096656 908.8261068292582C428.10762693026254 1037.7509383990414 148.61378406145104 1032.1639911326038 20.9704645694452 929.5989624260358C-106.67285492256053 827.0339337194678 11.985888612260737 629.9421652520875 -3.0969761519630765 416.5139690377322C-18.17984091618689 203.08577282337671 -163.37759297267974 24.64061202431367 -51.42728629882936 -94.85637940286921C60.52302037502102 -214.35337083005209 337.6983006388922 -241.5749544573183 534.264495882519 -157.07158981274665C730.8306911261457 -72.56822516817488 876.3974380524251 88.69775075732491 892.0904508705803 310.75977089107573C907.7834636887355 532.8217910248268 791.0742878890687 779.9012752594749 609.5909574096656 908.8261068292582 "></path><path d="M868.6575766173496 315.00937245857654C883.6033031108309 526.4970106811966 772.4517071111479 761.8108051903855 599.6104399879071 884.5963590663694C426.76917286466596 1007.3819129423532 160.5845606086549 1002.0610107838413 39.019494425792345 904.3800310633003C-82.54557175707032 806.6990513427595 30.46275541894994 618.9926051833497 16.098122310165365 415.7276564077731C1.7334892013807917 212.4627076321966 -136.55008418575522 42.51493544261268 -29.93074449637396 -71.29172305946622C76.68859519300736 -185.09838156154512 340.6650525871704 -211.02369930179873 527.870952819196 -130.5443044022066C715.0768530512214 -50.06490950261451 853.7118501238681 103.52173423595673 868.6575766173496 315.00937245857654C883.6033031108309 526.4970106811966 772.4517071111479 761.8108051903855 599.6104399879071 884.5963590663694 "></path><path d="M845.2247023641187 319.25885195576495C859.423142532926 520.1721082672539 753.8291263332271 743.7202130509831 589.6299225661484 860.3664892331681C425.4307187990694 977.0127654153528 172.55533715585898 971.9579083647666 57.068524282139435 879.1609776302523C-58.41828859158011 786.3640468957387 48.93962222563914 608.0429230442994 35.29322077229381 414.94122170750165C21.646819318948474 221.8395203707039 -109.72257539883077 60.38913679059931 -8.434202693918508 -47.727188786375734C92.8541700109937 -155.84351436335072 343.6318045354485 -180.4725662165916 521.4774097558728 -104.01714106197909C699.3230149762971 -27.56171590736659 831.0262621953116 118.34559564427605 845.2247023641187 319.25885195576495C859.423142532926 520.1721082672539 753.8291263332271 743.7202130509831 589.6299225661484 860.3664892331681 "></path><path d="M821.7917975933099 323.50845352326587C835.242951437443 513.8473279236238 735.2065150377284 725.6297429818937 579.6493746268117 836.136741470279C424.0922342158947 946.6437399586646 184.52608318548482 941.8549280160039 75.1175236209084 853.9420462675171C-34.291035943667964 766.0291645190302 67.41645851475027 597.0933629755616 54.48828871684418 414.1549090775427C41.56011891893803 231.2164551795238 -82.89509712948438 78.26346020889832 13.062308590958764 -24.162532442972747C109.01971431140191 -126.58852509484376 346.5985259661486 -149.92131106107195 515.0838361749717 -77.48985565143909C683.5691463837945 -5.0584002418062255 808.3406437491767 133.16957912290798 821.7917975933099 323.50845352326587C835.242951437443 513.8473279236238 735.2065150377284 725.6297429818937 579.6493746268117 836.136741470279 "></path><path d="M798.358923340079 327.7579635380323C811.0627908595382 507.5224560272593 716.5839342598078 707.5391813600697 569.668857205053 811.9069021546561C422.7537801502981 916.2746229492425 196.4968597326888 911.7518561145073 93.16655347725549 828.7230233520474C-10.163752778177752 745.6941905895878 85.89332532143948 586.1437113540894 73.68338717897257 413.36850489484937C61.47344903650571 240.5932984356093 -56.06758834255993 96.13769207446296 34.55885039341416 -0.597967652304078C125.18528912938825 -97.33362737907117 349.5652779144268 -119.37014745828674 508.69029311164854 -50.96266179363346C667.81530830887 17.44482387101982 785.65505582062 147.99347104880542 798.358923340079 327.7579635380323C811.0627908595382 507.5224560272593 716.5839342598078 707.5391813600697 569.668857205053 811.9069021546561 "></path><path d="M774.9260490868483 332.00747355279884C786.8826302816333 501.1975841308947 697.9613534818873 689.4486197382457 559.6883397832943 787.6770628390329C421.4153260847015 885.9055059398202 208.46763627989276 881.6487842130105 111.21558333360258 803.5040004365778C13.963530387312517 725.359216660145 104.37019212812868 575.1940597326172 92.87848564110107 412.58210071215603C81.3867791540734 249.97014169169483 -29.24007955563542 114.01192394002771 56.055392195869615 22.966597138364534C141.35086394737465 -68.07872966329859 352.53202986270503 -88.81898385550147 502.2967500483255 -24.435467935827774C652.0614702339459 39.94804798384587 762.9694678920632 162.81736297470286 774.9260490868483 332.00747355279884C786.8826302816333 501.1975841308947 697.9613534818873 689.4486197382457 559.6883397832943 787.6770628390329 "></path><path d="M751.4931748336176 336.2570140851435C762.7024697037286 494.87274275210837 679.3387727039664 671.3580886340001 549.7078223615357 763.4472540409879C420.07687201910494 855.536419447976 220.43841282709673 851.545742829092 129.26461318994973 778.2850080386861C38.09081355280273 705.0242732482805 122.84705893481794 564.2444386287233 112.0735841032295 411.7957270470408C101.30010927164108 259.34701546535837 -2.412570768710964 131.88618632317048 77.55193399832501 46.53119244661127C157.516438765361 -38.823801429947935 355.49878181098325 -58.26778973513808 495.9032069850024 2.0917564395559793C636.3076321590215 62.45130261425004 740.2838799635065 177.64128541817854 751.4931748336176 336.2570140851435C762.7024697037286 494.87274275210837 679.3387727039664 671.3580886340001 549.7078223615357 763.4472540409879 "></path><path d="M728.0603005803869 340.50655461748806C738.5223091258238 488.547901373322 660.7161919260458 653.2675575297542 539.727304939777 739.2174452429431C418.73841795350836 825.1673329561318 232.4091893743007 821.4427014451733 147.31364304629682 753.0660156407946C62.21809671829294 684.6893298364159 141.32392574150714 553.2948175248292 131.26868256535795 411.0093533819256C121.21343938920876 268.723889239022 24.414938018213547 149.76044870631324 99.04847580078041 70.09578775485801C173.68201358334733 -9.568873196597224 358.46553375926146 -27.716595614774747 489.50966392167936 28.618980814939732C620.5537940840973 84.95455724465421 717.5982920349498 192.4652078616541 728.0603005803869 340.50655461748806C738.5223091258238 488.547901373322 660.7161919260458 653.2675575297542 539.727304939777 739.2174452429431 "></path><path d="M704.6274263271561 344.7560951498326C714.342148547919 482.22305999453556 642.0936111481251 635.1770264255083 529.7467875180184 714.9876364448978C417.3999638879118 794.7982464642873 244.37996592150466 791.3396600612546 165.3626729026439 727.8470232429031C86.34537988378321 664.3543864245514 159.80079254819634 542.345196420935 150.4637810274864 410.2229797168104C141.12676950677644 278.10076301268555 51.242446805138 167.63471108945612 120.54501760323586 93.66038306310475C189.84758840133372 19.686055036753487 361.4322857075397 2.8345985055886445 483.1161208583562 55.146205190323485C604.7999560091728 107.45781187505838 694.9127041063932 207.28913030512967 704.6274263271561 344.7560951498326C714.342148547919 482.22305999453556 642.0936111481251 635.1770264255083 529.7467875180184 714.9876364448978 "></path><path d="M681.1945520739254 349.0056356821773C690.1619879700141 475.8982186157492 623.4710303702043 617.0864953212626 519.7662700962597 690.757827646853C416.0615098223152 764.4291599724434 256.35074246870863 761.2366186773361 183.411702758991 702.6280308450115C110.47266304927342 644.0194430126869 178.2776593548856 531.3955753170411 169.65887948961483 409.4366060516952C161.04009962434412 287.4776367863492 78.06995559206246 185.50897347259888 142.04155940569126 117.22497837135154C206.01316321932006 48.94098327010414 364.3990376558179 33.385792625952035 476.7225777950332 81.6734295657073C589.0461179342485 129.96106650546255 672.2271161778366 222.1130527486053 681.1945520739254 349.0056356821773C690.1619879700141 475.8982186157492 623.4710303702043 617.0864953212626 519.7662700962597 690.757827646853 "></path><path d="M657.7616473031164 353.2551456969437C665.9817968745313 469.57334671938463 604.8484190747056 598.9959336994385 509.78572215692304 666.5279883312297C414.7230252391405 734.0600429630209 268.3214884983344 731.1335467758394 201.46070209775996 677.4090079295418C134.59991569718557 623.6844690832443 196.75449564399668 520.4459236955689 188.85394743416515 408.6502018690019C180.95339922433368 296.8544800424347 104.89743386140884 203.38320533816358 163.53807069056853 140.78954316202015C222.17870751972828 78.19588098587673 367.365759086518 63.936956228737245 470.32900421413206 108.20062342351292C573.292249341746 152.4642906182886 649.5414977317017 236.9369446745028 657.7616473031164 353.2551456969437C665.9817968745313 469.57334671938463 604.8484190747056 598.9959336994385 509.78572215692304 666.5279883312297 "></path><path d="M634.3287730498857 357.50468622928827C641.8016362966264 463.2485053405983 586.2258382967849 580.9054025951928 499.80520473516447 642.2981795331847C413.3845711735439 703.6909564711766 280.2922650455384 701.0305053919207 219.5097319541071 652.1900155316501C158.72719886267578 603.3495256713798 215.23136245068588 509.49630259167486 208.04904589629365 407.86382820388656C200.86672934190136 306.23135381609836 131.7249426483333 221.25746772130634 185.03461249302399 164.3541384702669C238.34428233771462 107.45080921922744 370.3325110347962 94.48815034910064 463.9354611508089 134.72784779889668C557.5384112668216 174.96754524869277 626.855909803145 251.76086711797836 634.3287730498857 357.50468622928827C641.8016362966264 463.2485053405983 586.2258382967849 580.9054025951928 499.80520473516447 642.2981795331847 "></path><path d="M610.8958987966549 361.75422676163294C617.6214757187215 456.9236639618118 567.6032575188642 562.8148714909469 489.8246873134058 618.0683707351395C412.04611710794734 673.3218699793323 292.2630415927424 670.927464008002 237.5587618104542 626.9710231337585C182.854482028166 583.0145822595151 233.70822925737514 498.5466814877808 227.2441443584221 407.07745453877135C220.78005945946904 315.6082275897619 158.5524514352578 239.13173010444916 206.53115429547938 187.91873377851363C254.50985715570096 136.70573745257815 373.2992629830743 125.03934446946403 457.5419180874858 161.25507217428049C541.7845731918973 197.4707998790969 604.1703218745884 266.584789561454 610.8958987966549 361.75422676163294C617.6214757187215 456.9236639618118 567.6032575188642 562.8148714909469 489.8246873134058 618.0683707351395 "></path><path d="M587.4630245434241 366.00373677639936C593.4413151408166 450.59879206544736 548.9806767409436 544.7243098691229 479.8441698916472 593.8385314195165C410.70766304235076 642.9527529699101 304.2338181399464 640.8243921065052 255.6077916668013 601.7520002182889C206.98176519365626 562.6796083300725 252.18509606406434 487.5970298663086 246.43924282055053 406.291050356078C240.69338957703667 324.9850708458474 185.37996022218226 257.00596197001386 228.02769609793478 211.48329856918224C270.6754319736873 165.96063516835068 376.2660149313525 155.5905080722493 451.14837502416276 187.7822660320861C526.0307351169729 219.97402399192293 581.4847339460316 281.40868148735143 587.4630245434241 366.00373677639936C593.4413151408166 450.59879206544736 548.9806767409436 544.7243098691229 479.8441698916472 593.8385314195165 "></path><path d="M564.0301502901934 370.25327730874403C569.2611545629119 444.273950686661 530.3580959630228 526.6337787648771 469.8636524698885 569.6087226214715C409.3692089767542 612.5836664780659 316.20459468715035 610.7213507225866 273.6568215231484 576.5330078203973C231.10904835914647 542.344664918208 270.66196287075354 476.64740876241467 265.634341282679 405.5046766909628C260.60671969460435 334.361944619511 212.20746900910677 274.8802243531566 249.52423790039023 235.04789387742903C286.84100679167364 195.2155634017014 379.23276687963073 186.14170219261263 444.75483196083974 214.30949040746987C510.27689704204863 242.4772786223271 558.7991460174749 296.23260393082705 564.0301502901934 370.25327730874403C569.2611545629119 444.273950686661 530.3580959630228 526.6337787648771 469.8636524698885 569.6087226214715 "></path><path d="M540.5972607781737 374.50281784108864C545.0809787262181 437.94910930787455 511.7354999263131 508.5432476606313 459.88311978934075 545.3789138234265C408.03073965236854 582.2145799862217 328.17535597556525 580.618309338668 291.70583612070646 551.3140154225057C255.23631626584768 522.0097215063435 289.13881441865374 465.6977876585206 284.82942448601835 404.7183030258476C280.52003455338297 343.7388183931746 239.03496253724217 292.75448673629944 271.02076444405657 258.61248918567577C303.00656635087097 224.4704916350521 382.1995035691199 216.69289631297602 438.36127363872754 240.83671478285362C494.5230437083352 264.9805332527313 536.1135428301293 311.0565263743026 540.5972607781737 374.50281784108864C545.0809787262181 437.94910930787455 511.7354999263131 508.5432476606313 459.88311978934075 545.3789138234265 "></path><path d="M517.1643712661538 378.752312597066C520.9008028895241 431.624222152721 493.11290388960333 490.45267078001825 449.9025871087931 521.1490592490143C406.6922703279829 551.8454477180102 340.14611726398016 550.5152221783821 309.7548507182645 526.094977248247C279.3635841725488 501.67473231811175 307.6156659665539 454.74812077825936 304.02450768935773 403.93188358436515C300.4333494121616 353.11564639047106 265.8624560653776 310.6287033430751 292.5172909877229 282.1770387175553C319.17212591006825 253.72537409203557 385.16624025860904 247.24404465697222 431.9677153166154 267.36389338187024C478.76919037462176 287.48374210676826 513.4279396427835 325.88040304141106 517.1643712661538 378.752312597066C520.9008028895241 431.624222152721 493.11290388960333 490.45267078001825 449.9025871087931 521.1490592490143 "></path><path d="M493.73151227171206 383.00188364698874C496.7206575704083 425.29941129151274 474.4903383704718 472.3621701933505 439.9220849458236 496.91928096854735C405.3538315211754 521.4763917437441 352.1169090699732 520.4122113120417 327.80389583340065 500.8760153679335C303.4908825968281 481.33981942382525 326.0925480320322 443.79853019194337 323.21962141027524 403.14554043682807C320.34669478851833 362.49255068171277 292.68998011109113 328.50299624379596 314.0138480489674 305.7416645433802C335.33771598684365 282.9803328429644 388.13300746567626 277.7952692949137 425.5741875120814 293.8911482748321C463.01536755848645 309.98702725475056 490.7423669730158 340.7043560024648 493.73151227171206 383.00188364698874C496.7206575704083 425.29941129151274 474.4903383704718 472.3621701933505 439.9220849458236 496.91928096854735 "></path><path d="M470.29863801848137 387.2513936617553C472.54049699250356 418.9745393951482 455.8677575925511 454.2716085715266 429.9415675240649 472.6894416529242C404.0153774555788 491.1072747343218 364.08768561717716 490.30913941054496 345.85292568974774 475.6569924524638C327.61816576231837 461.00484549438266 344.5694148387214 432.84887857047124 342.41471987240374 402.35913625413474C340.260024906086 371.86939393779824 319.51748889801564 346.37722810936066 335.5103898514228 329.3062293340488C351.50329080483 312.235230558737 391.0997594139545 308.34643289769895 419.1806444487583 320.41834213263775C447.26152948356213 332.49025136757655 468.0567790444592 355.52824792836225 470.29863801848137 387.2513936617553C472.54049699250356 418.9745393951482 455.8677575925511 454.2716085715266 429.9415675240649 472.6894416529242 "></path><path d="M446.86576376525056 391.5009494528889C448.3603364145987 412.64971327515093 437.24517681463044 436.1810927260698 419.96105010230633 448.4596481136682C402.6769233899822 460.7382035012666 376.0584621643811 460.20611328541537 363.9019555460949 450.4380153133613C351.7454489278086 440.66991734130715 363.0462816454106 421.89927272536625 361.6098183345322 401.57277784780854C360.1733550236537 381.2462829702509 346.3449976849401 364.25150575129254 357.0069316538782 352.87083990108465C367.6688656228164 341.49017405087676 394.06651136223263 338.8976422768514 412.7871013854352 346.94558176681056C431.50769140863775 354.9935212567698 445.37119111590243 370.35218563062693 446.86576376525056 391.5009494528889C448.3603364145987 412.64971327515093 437.24517681463044 436.1810927260698 419.96105010230633 448.4596481136682 "></path><path d="M423.4328895120198 395.7504594676554C424.1801758366939 406.3248413787864 418.62259603670975 418.0905311042458 409.9805326805477 424.22980879804504C401.33846932438564 430.3690864918442 388.0292387115851 430.10304138391865 381.950985402442 425.2189923978916C375.87273209329885 420.3349434118645 381.52314845209986 410.94962110389406 380.8049167966606 400.7863736651152C380.0866851412214 390.6231262263364 373.1725064718646 382.1257376168572 378.50347345633367 376.43540469175326C383.8344404408027 370.7450717666493 397.03326331051085 369.4488058796366 406.39355832211214 373.47277562461625C415.75385333371344 377.4967453695958 422.68560318734575 385.1760775565244 423.4328895120198 395.7504594676554C424.1801758366939 406.3248413787864 418.62259603670975 418.0905311042458 409.9805326805477 424.22980879804504 "></path></g></svg>