<svg xmlns="http://www.w3.org/2000/svg" version="1.1" xmlns:xlink="http://www.w3.org/1999/xlink" xmlns:svgjs="http://svgjs.dev/svgjs" viewBox="0 0 800 800"><defs><linearGradient x1="50%" y1="0%" x2="50%" y2="100%" id="uundulate-grad"><stop stop-color="#3f00d3" stop-opacity="1" offset="45%"></stop><stop stop-color="#00b9a3" stop-opacity="1" offset="100%"></stop></linearGradient></defs><g stroke-width="2" stroke="url(#uundulate-grad)" fill="none"><path d="M673.183581397789 197.3821572559325C697.4495164962868 278.40203181619466 472.528480512492 566.6555077928543 360.18010712118894 625.9059760848338C247.8317337298859 685.1564443768134 158.17732421803152 562.804279617696 133.91138911953374 481.7844050574338C109.64545402103602 400.7645304971717 131.35524525709684 296.2610464875547 243.70361864839992 237.0105781955752C356.051992039703 177.76010990359566 648.9176462992913 116.36228269567039 673.183581397789 197.3821572559325C697.4495164962868 278.40203181619466 472.528480512492 566.6555077928543 360.18010712118894 625.9059760848338 "></path><path d="M660.7661486540329 206.59206890898315C683.929086702599 283.9292218983243 469.2317341726132 559.0802671487722 361.9901050263693 615.6375323365708C254.74847588012545 672.1947975243695 169.16926680062807 555.4040947997573 146.00632875206202 478.0669418104162C122.84339070349597 400.7297888210751 143.56637324700858 300.97646317553165 250.80800239325242 244.419197987733C358.0496315394963 187.86193279993438 637.6032106054669 129.25491591964203 660.7661486540329 206.59206890898315C683.929086702599 283.9292218983243 469.2317341726132 559.0802671487722 361.9901050263693 615.6375323365708 "></path><path d="M648.3486701339098 215.80195004445568C670.4086111325441 289.4563814628758 465.93494205636716 551.5049959871119 363.80005715518246 605.3690580707296C261.66517225399787 659.2331201543473 180.16116360685749 548.0038794642408 158.10122260822317 474.3494480458205C136.04128160958885 400.6950166274004 155.7774554605532 305.6918493459304 257.91234036173785 251.82778726231265C360.04722526292244 197.96372517869492 626.2887291352754 142.14751862603555 648.3486701339098 215.80195004445568C670.4086111325441 289.4563814628758 465.93494205636716 551.5049959871119 363.80005715518246 605.3690580707296 "></path><path d="M635.9312373901537 225.01186169750633C656.8881813388564 294.9835715450055 462.6381957164882 543.9297553430297 365.6100550603628 595.1006143224665C268.5819144042374 646.2714733019034 191.15310618945404 540.6036946463021 170.19616224075145 470.63198479880293C149.23921829204886 400.6602749513038 167.988583450465 310.4072660339073 265.0167241065904 259.2364070544705C362.04486476271575 208.06554807503363 614.9742934414512 155.04015185000725 635.9312373901537 225.01186169750633C656.8881813388564 294.9835715450055 462.6381957164882 543.9297553430297 365.6100550603628 595.1006143224665 "></path><path d="M623.5138351639757 234.22175809176792C643.3677820627468 300.5107463683461 459.3414798941874 536.3544994401585 367.4200834831213 584.8321553154144C275.4986870720551 633.3098111906704 202.14507928962877 533.2034945695743 182.29113239085785 466.9145062929963C162.437185492087 400.62551801641814 180.19974195795493 315.1226674630952 272.1211383690211 266.64501158783924C364.0425347800872 218.16735571258323 603.6598882652049 167.93276981518983 623.5138351639757 234.22175809176792C643.3677820627468 300.5107463683461 459.3414798941874 536.3544994401585 367.4200834831213 584.8321553154144 "></path><path d="M611.0963719026417 243.43165448602952C629.8473217514809 306.0379211916867 456.0447030367304 528.7792435372874 369.2300508707235 574.5636963083624C282.41539870471655 620.3481490794375 213.1369913546472 525.8032944928468 194.38604150580807 463.19702778718965C175.63509165696888 400.5907610815325 192.4108394302886 319.83806889228305 279.2254915962955 274.05361612120794C366.0401437623025 228.26916335013289 592.3454220538024 180.8253877803724 611.0963719026417 243.43165448602952C629.8473217514809 306.0379211916867 456.0447030367304 528.7792435372874 369.2300508707235 574.5636963083624 "></path><path d="M598.6789391588857 252.64156613908017C616.3268919577931 311.5651112738163 452.7479566968515 521.2040028932051 371.04004877590376 564.2952525600992C289.3321408549561 607.3865022269936 224.1289339372438 518.4031096749081 206.48098113833635 459.4795645401721C188.8330283394289 400.5560194054359 204.6219674202004 324.5534855802599 286.32987534114807 281.46223591336576C368.0377832620958 238.37098624647155 581.0309863599782 193.7180210043441 598.6789391588857 252.64156613908017C616.3268919577931 311.5651112738163 452.7479566968515 521.2040028932051 371.04004877590376 564.2952525600992 "></path><path d="M586.2615064151296 261.8514777921308C602.8064621641054 317.09230135594595 449.4512103569725 513.628762249123 372.8500466810841 554.0268088118363C296.24888300519564 594.4248553745497 235.12087651984035 511.00292485696946 218.57592077086463 455.7621012931545C202.0309650218889 400.5212777293393 216.83309541011215 329.26890226823684 293.4342590860006 288.8708557055236C370.0354227618891 248.47280914281026 569.7165506661538 206.61065422831575 586.2615064151296 261.8514777921308C602.8064621641054 317.09230135594595 449.4512103569725 513.628762249123 372.8500466810841 554.0268088118363 "></path><path d="M573.8440736713735 271.0613436688143C589.2860323704176 322.61944566170837 446.1544640170937 506.0534758286735 374.66004458626446 543.7583192872061C303.16562515543524 581.4631627457384 246.11281910243696 503.6026942626638 230.6708604033929 452.0445922697696C215.2289017043489 400.48649027687554 229.04422340002395 333.9842731798466 300.5386428308532 296.27942972131416C372.0330622616824 258.57458626278174 558.4021149723295 219.5032416759202 573.8440736713735 271.0613436688143C589.2860323704176 322.61944566170837 446.1544640170937 506.0534758286735 374.66004458626446 543.7583192872061 "></path><path d="M561.4266409276174 280.271270580654C575.7656025767299 328.1466510026271 442.85771767721485 498.4782504433806 376.4700424914448 533.4898907977321C310.0823673056748 568.5015311520835 257.1047616850335 496.2025247035142 242.76580003592125 448.3271442815411C228.42683838680892 400.4517638595681 241.25535138993575 338.69970512661257 307.6430265757058 303.68806477226104C374.03070176147577 268.6764244179095 547.0876792785052 232.3958901586809 561.4266409276174 280.271270580654C575.7656025767299 328.1466510026271 442.85771767721485 498.4782504433806 376.4700424914448 533.4898907977321 "></path><path d="M549.0092081838616 289.48118223370466C562.2451727830421 333.67384108475676 439.5609713373359 490.9030097992984 378.2800403966251 523.221447049469C316.9991094559143 555.5398842996397 268.0967042676301 488.80233988557563 254.86073966844953 444.60968103452365C241.62477506926894 400.41702218347154 253.46647937984756 343.4151218145895 314.7474103205583 311.09668456441887C376.0283412612691 278.77824731424823 535.7732435846808 245.2885233826526 549.0092081838616 289.48118223370466C562.2451727830421 333.67384108475676 439.5609713373359 490.9030097992984 378.2800403966251 523.221447049469 "></path><path d="M536.5917754401055 298.6910633691772C548.7247429893544 339.20100064930824 436.26422499745695 483.32773863763805 380.0900383018054 512.9529727836278C323.91585160615386 542.5782069296176 279.0886468502267 481.40212455005894 266.9556793009778 440.89218726992783C254.82271175172895 400.3822499897968 265.67760736975936 348.1305079849883 321.8517940654109 318.5052738389985C378.02598076106244 288.88003969300877 524.4588078908566 258.18112608904613 536.5917754401055 298.6910633691772C548.7247429893544 339.20100064930824 436.26422499745695 483.32773863763805 380.0900383018054 512.9529727836278 "></path><path d="M524.1743426963494 307.90097502222784C535.2043131956666 344.7281907314379 432.9674786575781 475.75249799355595 381.90003620698576 502.6845290353648C330.83259375639346 529.6165600771736 290.0805894328233 474.0019397321204 279.0506189335061 437.17472402291025C268.02064843418896 400.3475083137002 277.88873535967116 352.8459246729652 328.95617781026345 325.9138936311563C380.02362026085575 298.9818625893475 513.1443721970322 271.0737593130178 524.1743426963494 307.90097502222784C535.2043131956666 344.7281907314379 432.9674786575781 475.75249799355595 381.90003620698576 502.6845290353648 "></path><path d="M511.75690995259333 317.1108866752785C521.6838834019788 350.25538081356757 429.67073231769916 468.17725734947385 383.7100341121661 492.41608528710174C337.749335906633 516.6549132247297 301.0725320154198 466.6017549141817 291.1455585660344 433.4572607758927C281.21858511664897 400.3127666376036 290.0998633495829 357.5613413609421 336.060561555116 333.32251342331415C382.02125976064906 309.08368548568615 501.82993650320793 283.9663925369895 511.75690995259333 317.1108866752785C521.6838834019788 350.25538081356757 429.67073231769916 468.17725734947385 383.7100341121661 492.41608528710174 "></path><path d="M499.33947720883737 326.32079832832915C508.1634536082911 355.7825708956972 426.37398597782027 460.60201670539163 385.5200320173464 482.1476415388387C344.6660780568726 503.69326637228585 312.06447459801643 459.20157009624313 303.2404981985627 429.7397975288751C294.416521799109 400.278024961507 302.3109913394947 362.276758048919 343.16494529996856 340.7311332154719C384.0188992604424 319.18550838202486 490.51550080938364 296.8590257609611 499.33947720883737 326.32079832832915C508.1634536082911 355.7825708956972 426.37398597782027 460.60201670539163 385.5200320173464 482.1476415388387 "></path><path d="M486.9220444650813 335.5306794638017C494.64302381460334 361.3097304602487 423.0772396379414 453.0267455437313 387.33002992252676 471.87916727299756C351.58282020711215 490.7315890022637 323.056417180613 451.80135476072644 315.335437831091 426.02230376427934C307.614458481569 400.2432527678323 314.5221193294065 366.9921442193178 350.2693290448211 348.1397224900516C386.01653876023573 329.2873007607854 479.20106511555923 309.75162846735464 486.9220444650813 335.5306794638017C494.64302381460334 361.3097304602487 423.0772396379414 453.0267455437313 387.33002992252676 471.87916727299756 "></path><path d="M474.5046117213253 344.74059111685233C481.1225940209156 366.8369205423784 419.7804932980625 445.4515048996492 389.14002782770706 461.6107235247345C358.4995623573517 477.7699421498198 334.0483597632096 444.4011699427878 327.43037746361927 422.3048405172618C320.812395164029 400.2085110917358 326.7332473193183 371.70756090729475 357.3737127896737 355.54834228220943C388.0141782600291 339.3891236571241 467.88662942173494 322.6442616913263 474.5046117213253 344.74059111685233C481.1225940209156 366.8369205423784 419.7804932980625 445.4515048996492 389.14002782770706 461.6107235247345 "></path><path d="M462.08717897756924 353.9504875111139C467.60216422722783 372.364095365719 416.4837469581836 437.876248996778 390.9500257328874 451.3422645176824C365.41630450759124 464.8082800385868 345.04030234580614 437.0009698660602 339.5253170961476 418.5873620114551C334.010331846489 400.1737541568501 338.9443753092301 376.4229623364826 364.47809653452623 362.95694681557814C390.0118177598224 349.4909312946737 456.57219372791064 335.5368796565089 462.08717897756924 353.9504875111139C467.60216422722783 372.364095365719 416.4837469581836 437.876248996778 390.9500257328874 451.3422645176824 "></path><path d="M449.66973097502415 363.1603991641646C454.081719174751 377.8912854478486 413.18698535951563 430.3010083526958 392.7600083792787 441.07382076941934C372.3330313990418 451.8466331861429 356.0322296696137 429.60078504812157 351.6202414698868 414.86989876443755C347.20825327015996 400.13901248075354 351.15548804035285 381.13837902445954 371.5824650205898 370.36556660773596C392.00944200082665 359.59275419101243 445.2577427752973 348.42951288048056 449.66973097502415 363.1603991641646C454.081719174751 377.8912854478486 413.18698535951563 430.3010083526958 392.7600083792787 441.07382076941934 "></path><path d="M437.2523134900572 372.37029555842616C440.5613046398523 383.4184602711892 409.8902542784258 422.7257524498246 394.57002154324806 430.8053617623673C379.2497888080704 438.8849710749099 367.02418751099935 422.20058497139394 363.71519636120416 411.1524202586309C360.40620521140903 400.1042555458679 363.36663128905366 385.85378045364735 378.6868640242314 377.7741711411047C394.0070967594091 369.69456182856203 433.943322340262 361.32213084566314 437.2523134900572 372.37029555842616C440.5613046398523 383.4184602711892 409.8902542784258 422.7257524498246 394.57002154324806 430.8053617623673 "></path><path d="M424.83486548751205 381.58019195268776C427.0408595873755 388.9456350945298 406.5934926797578 415.1504965469534 396.38000418963935 420.53690275531517C386.16651569952086 425.9233089636769 378.01611483480684 414.80038489466625 375.8101207349434 407.4349417528242C373.60412663508 400.06949861098224 375.5777440201764 390.5691818828352 385.7912325102949 385.1827756744735C396.0047210004133 379.7963694661117 422.62887138764864 374.2147488108457 424.83486548751205 381.58019195268776C427.0408595873755 388.9456350945298 406.5934926797578 415.1504965469534 396.38000418963935 420.53690275531517 "></path><path d="M412.4174480025451 390.7901036057384C413.5204450524768 394.4728251766594 403.29676159866796 407.5752559028712 398.1900173536087 410.2684590070521C393.0832731085495 412.961662111233 389.00807267619246 407.40020007672763 387.9050756262608 403.71747850580664C386.80207857632905 400.03475693488565 387.78888726887726 395.28459857081214 392.8956315139365 392.59139546663124C398.00237575899575 389.89819236245035 411.31445095261336 387.1073820348174 412.4174480025451 390.7901036057384C413.5204450524768 394.4728251766594 403.29676159866796 407.5752559028712 398.1900173536087 410.2684590070521 "></path></g></svg>