<svg xmlns="http://www.w3.org/2000/svg" version="1.1" xmlns:xlink="http://www.w3.org/1999/xlink" xmlns:svgjs="http://svgjs.com/svgjs" width="2050" height="800" preserveAspectRatio="none" viewBox="0 0 2050 800"><g mask="url(&quot;#SvgjsMask1056&quot;)" fill="none"><rect width="2050" height="800" x="0" y="0" fill="rgba(6, 0, 61, 1)"></rect><path d="M0,430.471C99.041,433.204,196.173,482.458,290.426,451.912C396.851,417.422,501.932,352.161,551.343,251.79C601.103,150.709,567.663,32.205,551.96,-79.36C536.211,-191.25,540.383,-319.208,459.821,-398.437C380.001,-476.937,249.295,-451.651,141.756,-482.777C34.767,-513.744,-60.111,-595.227,-170.567,-580.899C-286.805,-565.821,-386.141,-489.579,-466.151,-403.922C-548.171,-316.113,-638.503,-210.157,-628.73,-90.398C-619.002,28.815,-483.63,90.974,-417.626,190.723C-364.824,270.52,-363.287,388.524,-280.304,436.162C-197.58,483.652,-95.35,427.84,0,430.471" fill="#050031"></path><path d="M2050 1640.223C2225.89 1662.893 2432.335 1721.054 2570.364 1609.702 2709.718 1497.281 2649.298 1270.2559999999999 2715.042 1103.715 2775.893 949.568 2926.357 837.072 2940.55 671.958 2956.243 489.392 2919.6459999999997 288.854 2796.7690000000002 152.92100000000005 2674.466 17.624000000000024 2479.055-35.93100000000004 2296.725-40.26999999999998 2135.1440000000002-44.11500000000001 2010.975 94.46900000000005 1853.409 130.47199999999998 1680.4 170.00400000000002 1476.783 74.13199999999995 1334.116 179.683 1189.268 286.84799999999996 1130.6219999999998 487.234 1127.687 667.391 1124.893 838.9 1231.579 986.1949999999999 1318.567 1134.034 1397.3029999999999 1267.849 1481.579 1397.471 1609.248 1485.824 1739.901 1576.243 1892.415 1619.912 2050 1640.223" fill="#070049"></path></g><defs><mask id="SvgjsMask1056"><rect width="2050" height="800" fill="#ffffff"></rect></mask></defs></svg>